<svg xmlns="http://www.w3.org/2000/svg" xmlns:xlink="http://www.w3.org/1999/xlink" version="1.1" x="0px" y="0px" viewBox="0 0 100 100" enable-background="new 0 0 100 100" xml:space="preserve"><path d="M21,71h-7v-1h7V71z M29,84H14v2h15V84z M21,87h-7v1h7V87z M57,84H40v2h17V84z M29,67H14v2h15V67z M57,67H40v2h17V67z M48,87  h-8v1h8V87z M48,70h-8v1h8V70z M81,84H66v2h15V84z M81,67H66v2h15V67z M17,13h-5v1h5V13z M17,11h-5v1h5V11z M73.5,31.5h-47v1h47  V31.5z M95,5v90H5V5H95z M36,82H12v9h24V82z M36,65H12v15h24V65z M62,82H38v9h24V82z M62,65H38v15h24V65z M63.5,58.5h-27v2h27V58.5z   M88,82H64v9h24V82z M88,65H64v15h24V65z M91,9H9v45h82V9z M68.5,24.5h-37v3h37V24.5z M17,15h-5v1h5V15z M76.5,15  c0.8,0,1.5-0.7,1.5-1.5S77.3,12,76.5,12S75,12.7,75,13.5S75.7,15,76.5,15z M57,41.5H43c-0.3,0-0.5,0.2-0.5,0.5v4  c0,0.3,0.2,0.5,0.5,0.5h14c0.3,0,0.5-0.2,0.5-0.5v-4C57.5,41.7,57.3,41.5,57,41.5z M36.5,35.5h27v-1h-27V35.5z M72,70h-6v1h6V70z   M86.5,15c0.8,0,1.5-0.7,1.5-1.5S87.3,12,86.5,12S85,12.7,85,13.5S85.7,15,86.5,15z M72,87h-6v1h6V87z M81.5,15  c0.8,0,1.5-0.7,1.5-1.5S82.3,12,81.5,12S80,12.7,80,13.5S80.7,15,81.5,15z"></path></svg>