<svg xmlns="http://www.w3.org/2000/svg" xmlns:xlink="http://www.w3.org/1999/xlink" version="1.1" x="0px" y="0px" viewBox="0 0 100 100" enable-background="new 0 0 100 100" xml:space="preserve"><g display="none"><g display="inline"><path fill="#000000" d="M50,5C25.1,5,5,25.1,5,50c0,24.9,20.1,45,45,45c24.9,0,45-20.1,45-45C95,25.1,74.9,5,50,5z M29,56.7    c-3.6,0-6.6-3-6.6-6.6c0-3.6,3-6.6,6.6-6.6s6.6,3,6.6,6.6C35.6,53.8,32.7,56.7,29,56.7z M50,56.5c-3.6,0-6.6-3-6.6-6.6    c0-3.6,3-6.6,6.6-6.6c3.6,0,6.6,3,6.6,6.6C56.6,53.6,53.6,56.5,50,56.5z M72.3,58.9c-4.9,0-8.9-4-8.9-8.9c0-4.9,4-8.9,8.9-8.9    c4.9,0,8.9,4,8.9,8.9C81.3,54.9,77.3,58.9,72.3,58.9z"></path></g></g><g><g><path fill="#000000" d="M95,12.9C94.7,8.5,91.1,5,86.7,5H13.3C8.9,5,5.3,8.5,5,12.9h0V95h90L95,12.9L95,12.9z M28.4,8.9    c1.3,0,2.4,1.1,2.4,2.4s-1.1,2.4-2.4,2.4S26,12.7,26,11.3S27.1,8.9,28.4,8.9z M21.7,8.9c1.3,0,2.4,1.1,2.4,2.4s-1.1,2.4-2.4,2.4    s-2.4-1.1-2.4-2.4S20.3,8.9,21.7,8.9z M14.7,8.9c1.3,0,2.4,1.1,2.4,2.4s-1.1,2.4-2.4,2.4s-2.4-1.1-2.4-2.4S13.3,8.9,14.7,8.9z     M89.8,89.8H41.8V75.5H20.5v14.2H10.2V16.9h79.5V89.8z"></path><rect x="13.5" y="21.2" fill="#000000" width="73.2" height="13.1"></rect><rect x="34" y="39.9" fill="#000000" width="32.1" height="2.2"></rect><rect x="34" y="43.2" fill="#000000" width="32.1" height="2.2"></rect><rect x="34" y="46.6" fill="#000000" width="32.1" height="2.2"></rect><rect x="47.9" y="76.7" fill="#000000" width="32.1" height="2.2"></rect><rect x="47.9" y="80.1" fill="#000000" width="32.1" height="2.2"></rect><rect x="47.9" y="83.4" fill="#000000" width="32.1" height="2.2"></rect><path fill="#000000" d="M17,59.9c-1.5,0-2.7,1.2-2.7,2.7c0,1.5,1.2,2.7,2.7,2.7c1.5,0,2.7-1.2,2.7-2.7    C19.7,61.1,18.5,59.9,17,59.9z M17.4,64.3L16,62.8l0.1-0.1l-0.1-0.1l1.5-1.5l0.3,0.3l-1.3,1.3l1.3,1.3L17.4,64.3z"></path><path fill="#000000" d="M82.7,59.9c-1.5,0-2.7,1.2-2.7,2.7c0,1.5,1.2,2.7,2.7,2.7c1.5,0,2.7-1.2,2.7-2.7    C85.4,61.1,84.2,59.9,82.7,59.9z M82.3,64.1L82,63.8l1.3-1.3l-1.3-1.3l0.3-0.3l1.5,1.5l-0.1,0.1l0.1,0.1L82.3,64.1z"></path><rect x="25.3" y="57.4" fill="#000000" width="10.9" height="10.9"></rect><rect x="38" y="57.4" fill="#000000" width="10.9" height="10.9"></rect><rect x="51.1" y="57.4" fill="#000000" width="10.9" height="10.9"></rect><rect x="63.9" y="57.4" fill="#000000" width="10.9" height="10.9"></rect></g></g><g display="none"><circle display="inline" fill="#000000" cx="50.4" cy="8" r="0.2"></circle><circle display="inline" fill="#000000" cx="50.8" cy="7.4" r="0.2"></circle><circle display="inline" fill="#000000" cx="50.8" cy="8.3" r="0.2"></circle><circle display="inline" fill="#000000" cx="50.4" cy="8.7" r="0.2"></circle><circle display="inline" fill="#000000" cx="49.6" cy="8.1" r="0.2"></circle><circle display="inline" fill="#000000" cx="49.5" cy="8.7" r="0.2"></circle><circle display="inline" fill="#000000" cx="50" cy="7.9" r="0.2"></circle><circle display="inline" fill="#000000" cx="50.5" cy="7.1" r="0.2"></circle><circle display="inline" fill="#000000" cx="50" cy="8.3" r="0.2"></circle><circle display="inline" fill="#000000" cx="50" cy="8.8" r="0.2"></circle><circle display="inline" fill="#000000" cx="50.9" cy="7.9" r="0.2"></circle><circle display="inline" fill="#000000" cx="49" cy="7.9" r="0.2"></circle><circle display="inline" fill="#000000" cx="49.1" cy="8.3" r="0.2"></circle><circle display="inline" fill="#000000" cx="49.2" cy="7.4" r="0.2"></circle><circle display="inline" fill="#000000" cx="49.6" cy="7.7" r="0.2"></circle><circle display="inline" fill="#000000" cx="50" cy="6.9" r="0.2"></circle><circle display="inline" fill="#000000" cx="49.9" cy="7.4" r="0.2"></circle><circle display="inline" fill="#000000" cx="49.5" cy="7.1" r="0.2"></circle><circle display="inline" fill="#000000" cx="50.4" cy="7.6" r="0.2"></circle><g display="inline"><path fill="#000000" d="M71.6,11.2V9.8l0,0c0-0.1,0-0.3-0.1-0.4c-0.1-0.3-0.4-0.8-0.5-1c-0.5-0.7-1.2-1.5-2.6-1.8    c-1.4-0.3-10.9-1.9-21.6-1.4C39,5.4,32.7,6.4,31.6,6.7c-0.7,0.2-1.3,0.5-1.8,0.9c-0.3,0.2-1,0.9-1.2,1.3c-0.1,0.3-0.2,0.6-0.2,0.8    l0,0v1.1h0v78.2h0v1.4v0c0,0.1,0,0.3,0.1,0.4c0.1,0.3,0.4,0.8,0.5,1c0.5,0.7,1.2,1.5,2.6,1.8c1.4,0.3,10.9,1.9,21.6,1.4    c7.9-0.2,14.2-1.2,15.3-1.5c0.7-0.2,1.3-0.5,1.8-0.9c0.3-0.2,1-0.9,1.2-1.3c0.1-0.3,0.2-0.6,0.2-0.8l0,0v-1.5h0L71.6,11.2    L71.6,11.2z M50,6.6c0.7,0,1.2,0.6,1.2,1.2S50.7,9.1,50,9.1c-0.7,0-1.2-0.6-1.2-1.2S49.3,6.6,50,6.6z M37.5,7.3    c0.5,0,0.9,0.4,0.9,0.9c0,0.5-0.4,0.9-0.9,0.9c-0.5,0-0.9-0.4-0.9-0.9C36.6,7.7,37,7.3,37.5,7.3z M68.5,87.3H31.3V10.8h37.2V87.3z    "></path><path fill="#000000" d="M37.5,9c0.4,0,0.8-0.4,0.8-0.8S38,7.4,37.5,7.4s-0.8,0.4-0.8,0.8S37.1,9,37.5,9z M37.5,7.5    c0.4,0,0.7,0.3,0.7,0.7s-0.3,0.7-0.7,0.7s-0.7-0.3-0.7-0.7S37.1,7.5,37.5,7.5z"></path></g></g><g display="none"><g display="inline"><path fill="#000000" d="M50.1,63.5L50,63.4l-0.1,0.1l-19-19c-1.3,2.7-2,5.7-2,8.9v20.7c0,11.6,9.4,21,21,21c11.6,0,21-9.4,21-21    V53.4c0-3.1-0.7-6.1-1.9-8.7L50.1,63.5z"></path><path fill="#000000" d="M50,59.6L67.6,42c-3.7-5.8-10.2-9.6-17.6-9.6c-7.4,0-13.8,3.8-17.6,9.5L50,59.6z M50.1,40    c2.2,0,3.9,1.8,3.9,3.9c0,2.2-1.8,3.9-3.9,3.9c-2.2,0-3.9-1.8-3.9-3.9C46.1,41.8,47.9,40,50.1,40z"></path></g><path display="inline" fill="#000000" d="M49.6,28.7c-0.2-2.2,0.9-4.5,3.2-6.8l0,0c2.8-2.7,4.1-5.6,3.9-8.6   c-0.4-4.7-4.6-7.8-4.8-7.9l-1.3,1.8c0,0,3.5,2.6,3.8,6.2c0.2,2.2-0.9,4.5-3.2,6.8l0,0c-2.8,2.7-4.1,5.6-3.9,8.6   c0.4,4.7,4.6,7.8,4.8,7.9l1.3-1.8C53.4,34.9,49.9,32.3,49.6,28.7z"></path></g><g display="none"><path display="inline" fill="#000000" d="M72.9,27.2c-2.7,0-5.3,0.5-7.7,1.4c-3-8.5-11.1-14.7-20.6-14.7   c-11.2,0-20.4,8.4-21.7,19.2c-1.7-1-3.7-1.6-5.8-1.6c-6.4,0-11.5,5.2-11.5,11.5c0,6.4,5.2,11.5,11.5,11.5c0.5,0,0.9,0,1.3-0.1   c-0.1,0.7-0.1,1.4-0.1,2.2c0,15.8,12.8,28.6,28.6,28.6c10.8,0,20.1-6,25-14.8c0.3,0,0.7,0,1,0c12,0,21.7-9.7,21.7-21.7   C94.6,36.9,84.9,27.2,72.9,27.2z"></path></g><g display="none"><g display="inline"><path fill="#000000" d="M78.8,49.1c-0.6-7.7-7.4-13.4-15.1-12.8c-1.7,0.1-3.4,0.6-4.9,1.3c-2.3-5.3-7.9-8.8-14-8.3    c-7.2,0.6-12.6,6.5-12.9,13.5c-1.1-0.6-2.4-0.8-3.8-0.7c-4.1,0.3-7.1,3.9-6.8,8c0.3,4.1,3.9,7.1,8,6.8c0.3,0,0.6-0.1,0.9-0.1    c0,0.5,0,0.9,0,1.4c0.5,6.4,4.2,11.7,9.4,14.6l-0.3,9.4l5.1-3.1l-1.3,9.4L51,74.9c6.5-0.8,11.9-5,14.4-10.7c0.2,0,0.4,0,0.6,0    C73.7,63.6,79.4,56.8,78.8,49.1z"></path><path fill="#000000" d="M59.5,22.2c0.2,0,0.3,0,0.4-0.1c0,0.2,0,0.5,0,0.7c0.4,5.3,5.1,9.2,10.3,8.8c2.8-0.2,5.2-1.6,6.8-3.6    l0,1.5l3-1.8l-0.8,5.6l4.9-8.6l-1.6-0.2c1.8-1.5,2.8-3.7,2.6-6.2c-0.3-4-3.8-7-7.8-6.7c-0.9,0.1-1.8,0.3-2.5,0.7    c-1.2-2.8-4.1-4.6-7.3-4.3c-3.7,0.3-6.6,3.4-6.7,7c-0.6-0.3-1.3-0.4-2-0.4c-2.1,0.2-3.7,2-3.5,4.2C55.5,20.8,57.4,22.4,59.5,22.2z    "></path><path fill="#000000" d="M19.7,25.9c0,0.1,0,0.2,0,0.4c0.1,1.1,0.5,2,1.2,2.8l-0.1,4.5l3-1.8l-0.8,5.6l4.2-7.3    c0.8-0.5,1.5-1.3,1.9-2.1c0.1,0,0.1,0,0.2,0c2.1-0.2,3.6-2,3.4-4c-0.2-2.1-2-3.6-4-3.4c-0.5,0-0.9,0.2-1.3,0.4    c-0.6-1.4-2.1-2.4-3.7-2.2c-1.9,0.2-3.4,1.7-3.4,3.6c-0.3-0.1-0.7-0.2-1-0.2c-1.1,0.1-1.9,1-1.8,2.1c0.1,1.1,1,1.9,2.1,1.8    C19.6,25.9,19.7,25.9,19.7,25.9z"></path></g></g><g display="none"><g display="inline"><path fill="#000000" d="M26.6,74.9l-4.6,3c-1.2,0.8-2.1,2.1-1.7,3.6c0.4,1.6,2.1,2.6,3.7,2.1c1.4-0.4,2.2-1.8,2.2-3.1L26.6,74.9z"></path><path fill="#000000" d="M29.1,84.4l-4.6,3c-1.2,0.8-2.1,2.1-1.7,3.6c0.4,1.6,2.1,2.6,3.7,2.1c1.4-0.4,2.2-1.8,2.2-3.1L29.1,84.4z"></path><path fill="#000000" d="M38.1,81.1l-4.6,3c-1.2,0.8-2.1,2.1-1.7,3.6c0.4,1.6,2.1,2.6,3.7,2.1c1.4-0.4,2.2-1.8,2.2-3.1L38.1,81.1z"></path></g><path display="inline" fill="#000000" d="M47.5,79.9l-4.6,3c-1.2,0.8-2.1,2.1-1.7,3.6c0.4,1.6,2.1,2.6,3.7,2.1   c1.4-0.4,2.2-1.8,2.2-3.1L47.5,79.9z"></path><path display="inline" fill="#000000" d="M19.1,69l-4.6,3c-1.2,0.8-2.1,2.1-1.7,3.6c0.4,1.6,2.1,2.6,3.7,2.1   c1.4-0.4,2.2-1.8,2.2-3.1L19.1,69z"></path><path display="inline" fill="#000000" d="M18.6,84.6l-4.6,3c-1.2,0.8-2.1,2.1-1.7,3.6c0.4,1.6,2.1,2.6,3.7,2.1   c1.4-0.4,2.2-1.8,2.2-3.1L18.6,84.6z"></path><path display="inline" fill="#000000" d="M84.3,33.7c-2.6,3.3-6.6,5.4-11.1,5.4c-7.7,0-14-6.3-14-14c0-0.4,0-0.7,0.1-1.1   c-0.2,0-0.4,0-0.7,0c-3.1,0-5.7-2.5-5.7-5.7c0-1.1,0.3-2.1,0.8-2.9C50.4,12.7,46,11,41.2,11c-10.1,0-18.4,7.6-19.6,17.4   c-1.5-0.9-3.3-1.4-5.2-1.4C10.7,26.9,6,31.6,6,37.3c0,5.8,4.7,10.4,10.4,10.4c0.4,0,0.8,0,1.2-0.1c0,0.6-0.1,1.3-0.1,2   c0,14.3,11.6,25.8,25.8,25.8c9.7,0,18.2-5.4,22.6-13.3c0.3,0,0.6,0,0.9,0c10.8,0,19.6-8.8,19.6-19.6C86.4,39.3,85.7,36.3,84.3,33.7   z M51.8,43.1c-0.3-1.2,0.4-2.3,1.4-3l3.8-2.5l-0.2,4.7c-0.1,1.1-0.7,2.3-1.9,2.6C53.6,45.2,52.2,44.4,51.8,43.1z M59,50.2   c-0.1,1.1-0.7,2.3-1.9,2.6c-1.4,0.4-2.8-0.4-3.1-1.8c-0.3-1.2,0.4-2.3,1.4-3l3.8-2.5L59,50.2z M66.5,47.5c-0.1,1.1-0.7,2.3-1.9,2.6   c-1.4,0.4-2.8-0.4-3.1-1.8c-0.3-1.2,0.4-2.3,1.4-3l3.8-2.5L66.5,47.5z"></path><path display="inline" fill="#000000" d="M84.5,10.7c-1.2,0-2.3,0.2-3.3,0.6C79.9,7.6,76.4,5,72.3,5c-4.8,0-8.7,3.6-9.3,8.2   c-0.7-0.4-1.6-0.7-2.5-0.7c-2.7,0-4.9,2.2-4.9,4.9c0,2.7,2.2,4.9,4.9,4.9c0.2,0,0.4,0,0.6,0c0,0.3,0,0.6,0,0.9   c0,6.8,5.5,12.2,12.2,12.2c4.6,0,8.6-2.6,10.7-6.3c0.1,0,0.3,0,0.4,0c5.1,0,9.3-4.2,9.3-9.3C93.8,14.8,89.6,10.7,84.5,10.7z"></path></g><g display="none"><g display="inline"><path fill="#000000" d="M56.5,21.2v-4.9c0-2.7-1.7-5-4-6v-3c0-1.2-1-2.2-2.2-2.2c-1.2,0-2.2,1-2.2,2.2v2.8    c-2.6,0.8-4.5,3.3-4.5,6.2v1c-1.5,0.3-2.7,1.5-3.1,3.1C38.3,23,30.1,35,39,48.4c0,0.1,0,0.3,0,0.4c0,1.1,0.9,1.9,1.9,1.9    s1.9-0.9,1.9-1.9c0-1-0.7-1.7-1.6-1.9c-7.2-10.9-2.3-20.1,0-23.3c0.6,0.7,1.4,1.3,2.3,1.5v56.8h13V37.2l-2.6,4.1    c-0.4,0.6-1.2,0.8-1.8,0.4c-0.6-0.4-0.8-1.2-0.4-1.8l4.7-7.5v-1l-2.6,4.1c-0.4,0.6-1.2,0.8-1.8,0.4c-0.6-0.4-0.8-1.2-0.4-1.8    l4.7-7.5V26L53.9,30c-0.4,0.6-1.2,0.8-1.8,0.4c-0.6-0.4-0.8-1.2-0.4-1.8L56.5,21.2z"></path><path fill="#000000" d="M46,89.6h2v3.7c0,1,0.8,1.8,1.8,1.8s1.8-0.8,1.8-1.8v-3.7h2.1l2.6-6.8H43.4L46,89.6z M49.8,92    c0.7,0,1.3,0.6,1.3,1.3c0,0.7-0.6,1.3-1.3,1.3c-0.7,0-1.3-0.6-1.3-1.3C48.5,92.6,49.1,92,49.8,92z"></path></g></g><g display="none"><g display="inline"><path fill="#000000" d="M68.4,31.4H39.9c0.7-1.1,1.6-2.2,2.8-3.3l0,0c3.9-3.8,5.8-7.8,5.5-12c-0.5-6.6-6.4-10.9-6.7-11l-1.8,2.6    c0.1,0,5,3.6,5.3,8.7c0.2,3.1-1.3,6.3-4.5,9.4l0,0c-1.9,1.8-3.3,3.7-4.2,5.6h-4.5c-3.3,0-6.1,2.7-6.1,6.1v39.8    c0,3.3,2.7,6.1,6.1,6.1H46c0,2.8,1.9,5,4.2,5.1v5.3c0,0.7,0.5,1.2,1.2,1.2c0.7,0,1.2-0.5,1.2-1.2v-5.2h6.1v5.2    c0,0.7,0.5,1.2,1.2,1.2c0.7,0,1.2-0.5,1.2-1.2v-5.2h0.3c2.3,0,4.2-2.3,4.3-5.1h2.6c3.3,0,6.1-2.7,6.1-6.1V37.5    C74.5,34.2,71.8,31.4,68.4,31.4z M67.9,41.9H55v-5.4h12.9V41.9z"></path><rect x="56.3" y="37.3" fill="#000000" width="10.1" height="1.6"></rect><rect x="56.3" y="39.4" fill="#000000" width="10.1" height="1.6"></rect></g></g><g display="none"><g display="inline"><path fill="#000000" d="M38.7,29.7L25.9,42.6c-1.7,1.7-1.7,4.6,0.1,6.3l6.5,6.5l9.1-9.1l-5.2-5.2l1.2-1.2l5.2,5.2l8.8-8.8    l-6.5-6.5C43.3,28,40.5,28,38.7,29.7z"></path><path fill="#000000" d="M84.7,62.1L46.4,23.9c-2.7-2.7-7-2.7-9.6,0l-7.2,7.2c-1.3-0.1-3.1-0.4-4.4-1.5c-1.5-1.3-2.2-3.3-2.1-6.1    l0,0c0.1-3.4-0.9-5.9-2.8-7.6c-3.1-2.7-7.5-1.9-7.7-1.9l0.3,1.9c0,0,3.7-0.6,6.1,1.5c1.5,1.3,2.2,3.3,2.1,6.1l0,0    C21,26.8,22,29.4,23.9,31c1.2,1,2.6,1.6,3.9,1.8l-7.6,7.6c-2.7,2.7-2.7,7,0,9.6l38.2,38.2c2.7,2.7,7,2.7,9.7,0l16.6-16.6    C87.3,69.1,87.3,64.7,84.7,62.1z M32.5,57.8l-0.6-0.6l0,0l-7.1-7.1c-2.4-2.4-2.5-6.4-0.1-8.8l12.8-12.8c2.4-2.4,6.3-2.4,8.8,0.1    l7.1,7.1l0,0l0.6,0.6L32.5,57.8z"></path><path fill="#000000" d="M56.6,26.8c-0.4,0.9-0.2,2,0.6,2.8l1.4,1.4l3.4,0.8c0.3,0.1,0.4,0.3,0.4,0.6c-0.1,0.3-0.3,0.4-0.6,0.4    l-1.8-0.4l0.2,0.2l3.4,0.8c0.3,0.1,0.4,0.3,0.4,0.6c-0.1,0.3-0.3,0.4-0.6,0.4l-1.8-0.4l0.3,0.3l3.4,0.8c0.3,0.1,0.4,0.3,0.4,0.6    c-0.1,0.3-0.3,0.4-0.6,0.4L63,35.4l12.4,12.4l3.6-3.6L63.2,28.4c0.2-0.3,0.3-0.7,0.2-1.1c1.5,0.3,5.5,1.4,6.5,6.5    c-0.2,0.3-0.2,0.7,0.1,1c0.3,0.3,0.8,0.3,1.1,0c0.3-0.3,0.3-0.8,0-1.1c0,0-0.1-0.1-0.1-0.1c-1.3-6.2-6.9-7.2-8.2-7.4    c-0.5-0.3-1.2-0.3-1.7,0l-0.3-0.3c-0.8-0.8-2-1-3-0.5L57,24.7c-0.3-0.3-0.9-0.3-1.2,0c-0.3,0.3-0.3,0.9,0,1.2L56.6,26.8z"></path><path fill="#000000" d="M78.3,49.1l0.6-0.6l1,1c0.3,0.3,0.7,0.3,1,0c0.3-0.3,0.3-0.7,0-1l-1-1l0.5-0.5l-1.2-2.6L75.7,48L78.3,49.1    z M80,48.7c0.2-0.2,0.5-0.2,0.7,0c0.2,0.2,0.2,0.5,0,0.7c-0.2,0.2-0.5,0.2-0.7,0C79.9,49.2,79.8,48.9,80,48.7z"></path></g></g><g display="none"><rect x="36" y="32" display="inline" fill="#000000" width="14.1" height="3.5"></rect><rect x="36" y="37.1" display="inline" fill="#000000" width="16.9" height="3.5"></rect><rect x="36" y="61.8" display="inline" fill="#000000" width="14.1" height="3.5"></rect><rect x="36" y="66.9" display="inline" fill="#000000" width="16.9" height="3.5"></rect><g display="inline"><path fill="#000000" d="M59.5,10H41c-7.2,0-13.1,5.9-13.1,13.1v54.5c0,7.2,5.9,13.1,13.1,13.1h18.5c7.2,0,13.1-5.9,13.1-13.1V23.1    C72.6,15.9,66.7,10,59.5,10z M49.9,88.1c-1.5,0-2.7-1.2-2.7-2.7s1.2-2.7,2.7-2.7s2.7,1.2,2.7,2.7S51.4,88.1,49.9,88.1z M66.1,79.4    H33.9V19.1h32.2V79.4z"></path><rect x="36" y="22.4" fill="#000000" width="27.8" height="3.5"></rect><rect x="36" y="27.3" fill="#000000" width="20.8" height="3.5"></rect><rect x="36" y="42" fill="#000000" width="26.2" height="3.5"></rect><rect x="36" y="46.8" fill="#000000" width="24.2" height="3.5"></rect><rect x="36" y="52.1" fill="#000000" width="27.8" height="3.5"></rect><rect x="36" y="57" fill="#000000" width="20.8" height="3.5"></rect><rect x="36" y="71.8" fill="#000000" width="26.2" height="3.5"></rect></g></g><g display="none"><path display="inline" fill="#000000" d="M37,33.4c3.8-0.3,7.6,1.5,11.3,5.4l0,0c4.6,4.7,9.4,7,14.4,6.6c7.9-0.6,13-7.7,13.2-8   l-3.1-2.2c0,0.1-4.3,5.9-10.5,6.4c-3.8,0.3-7.6-1.5-11.3-5.4l0,0c-4.6-4.7-9.4-6.9-14.4-6.6c-7.9,0.6-13,7.7-13.2,8l3.1,2.2   C26.6,39.7,30.8,33.8,37,33.4z"></path><path display="inline" fill="#000000" d="M37,43c3.8-0.3,7.6,1.5,11.3,5.4l0,0c4.6,4.7,9.4,7,14.4,6.6c7.9-0.6,13-7.7,13.2-8   l-3.1-2.2c0,0.1-4.3,5.9-10.5,6.4c-3.8,0.3-7.6-1.5-11.3-5.4l0,0c-4.6-4.7-9.4-6.9-14.4-6.6c-7.9,0.6-13,7.7-13.2,8l3.1,2.2   C26.6,49.3,30.8,43.5,37,43z"></path><path display="inline" fill="#000000" d="M37,53.5c3.8-0.3,7.6,1.6,11.3,5.4l0,0c4.6,4.7,9.4,7,14.4,6.6c7.9-0.6,13-7.7,13.2-8   l-3.1-2.2c0,0.1-4.3,5.9-10.5,6.4c-3.8,0.3-7.6-1.5-11.3-5.4l0,0c-4.6-4.7-9.4-7-14.4-6.6c-7.9,0.6-13,7.7-13.2,8l3.1,2.2   C26.6,59.8,30.8,54,37,53.5z"></path></g><g display="none"><path display="inline" fill="#000000" d="M49,30.6c2.6,0,5.2,0.6,7.4,1.6V4.9H41.5v27.3C43.8,31.2,46.3,30.6,49,30.6z"></path><path display="inline" fill="#000000" d="M49,69.3c-2.6,0-5.2-0.6-7.4-1.6V95h14.9V67.7C54.2,68.7,51.7,69.3,49,69.3z"></path><path display="inline" fill="#000000" d="M66.8,47.1C66.8,47.1,66.8,47.1,66.8,47.1c-1.3-8.6-8.7-15.2-17.7-15.2   c-9.9,0-17.9,8-17.9,17.9c0,9.9,8,17.9,17.9,17.9c8.9,0,16.2-6.5,17.6-15c0,0,0,0,0,0c1.1,0,2-0.9,2-2v-1.7   C68.7,48,67.9,47.1,66.8,47.1z M49.1,65C40.8,65,34,58.2,34,49.9c0-8.3,6.8-15.1,15.1-15.1c8.3,0,15.1,6.8,15.1,15.1   C64.2,58.2,57.4,65,49.1,65z"></path><g display="inline"><polygon fill="#000000" points="48.7,59 47.8,58.2 47.5,58.5 48.7,59.6 48.7,59.6 48.7,59.6 50.5,57.8 50.3,57.5   "></polygon><path fill="#000000" d="M49,64c7.7,0,14-6.3,14-14s-6.3-14-14-14c-7.7,0-14,6.3-14,14S41.2,64,49,64z M49,61.2    c-1.5,0-2.7-1.2-2.7-2.7c0-1.5,1.2-2.7,2.7-2.7c1.5,0,2.7,1.2,2.7,2.7C51.7,60,50.5,61.2,49,61.2z M40,53.2v-1.8h11.1v1.8H40z     M39.9,42.1h12.4v1.8H39.9V42.1z M39.9,45.3h12.4v1.8H39.9V45.3z M39.9,48.4h18.4v1.8H39.9V48.4z"></path></g></g><g display="none"><path display="inline" fill="#000000" d="M84.1,39H51.4c-1-0.9-3.1-3-3.3-5.8C48,31,49,28.7,51.4,26.5l0,0c2.8-2.7,4.1-5.6,3.9-8.6   c-0.4-4.7-4.6-7.8-4.8-7.9l-1.3,1.8c0,0,3.5,2.6,3.8,6.2c0.2,2.2-0.9,4.5-3.2,6.8l0,0c-2.8,2.7-4.1,5.6-3.9,8.6   c0.2,2.3,1.3,4.2,2.4,5.6H15.9C9.9,39,5,43.9,5,49.9v20.2c0,6,4.9,10.9,10.9,10.9h68.3c6,0,10.9-4.9,10.9-10.9V49.9   C95,43.9,90.1,39,84.1,39z M88.7,49.1c0.8,0,1.5,1.3,1.5,3c0,0.2,0,0.4,0,0.6v5.9c0,1-1.3,1.9-3,1.9s-3-0.8-3-1.9v-3.5h-0.7   c-0.8,0-1.5-1.3-1.5-3c0-1.6,0.7-3,1.5-3H88.7z M77.6,43.5h4.7c0.7,0,1.2,0.6,1.2,1.2c0,0.7-0.6,1.2-1.2,1.2h-4.7   c-0.7,0-1.2-0.6-1.2-1.2C76.4,44.1,76.9,43.5,77.6,43.5z M69.8,43.5h4.7c0.7,0,1.2,0.6,1.2,1.2c0,0.7-0.6,1.2-1.2,1.2h-4.7   c-0.7,0-1.2-0.6-1.2-1.2C68.5,44.1,69.1,43.5,69.8,43.5z M67.1,56h1.6c1.4,0,2.5,1.1,2.5,2.5c0,1.4-1.1,2.5-2.5,2.5h-1.6   c-1.4,0-2.5-1.1-2.5-2.5C64.6,57.1,65.7,56,67.1,56z M64.4,51.5c0-1.4,1.1-2.5,2.5-2.5h1.6c1.4,0,2.5,1.1,2.5,2.5   c0,1.4-1.1,2.5-2.5,2.5h-1.6C65.5,54,64.4,52.9,64.4,51.5z M67.2,63h1.6c1.4,0,2.5,1.1,2.5,2.5c0,1.4-1.1,2.5-2.5,2.5h-1.6   c-1.4,0-2.5-1.1-2.5-2.5C64.7,64.1,65.8,63,67.2,63z M61.6,43.5h4.7c0.7,0,1.2,0.6,1.2,1.2c0,0.7-0.6,1.2-1.2,1.2h-4.7   c-0.7,0-1.2-0.6-1.2-1.2C60.4,44.1,60.9,43.5,61.6,43.5z M59.4,56H61c1.4,0,2.5,1.1,2.5,2.5c0,1.4-1.1,2.5-2.5,2.5h-1.6   c-1.4,0-2.5-1.1-2.5-2.5C56.9,57.1,58,56,59.4,56z M56.7,51.5c0-1.4,1.1-2.5,2.5-2.5h1.6c1.4,0,2.5,1.1,2.5,2.5   c0,1.4-1.1,2.5-2.5,2.5h-1.6C57.8,54,56.7,52.9,56.7,51.5z M53.4,43.5h4.7c0.7,0,1.2,0.6,1.2,1.2c0,0.7-0.6,1.2-1.2,1.2h-4.7   c-0.7,0-1.2-0.6-1.2-1.2C52.1,44.1,52.7,43.5,53.4,43.5z M52,56h1.6c1.4,0,2.5,1.1,2.5,2.5c0,1.4-1.1,2.5-2.5,2.5H52   c-1.4,0-2.5-1.1-2.5-2.5C49.5,57.1,50.6,56,52,56z M49.3,51.5c0-1.4,1.1-2.5,2.5-2.5h1.6c1.4,0,2.5,1.1,2.5,2.5   c0,1.4-1.1,2.5-2.5,2.5h-1.6C50.4,54,49.3,52.9,49.3,51.5z M52.1,63h1.6c1.4,0,2.5,1.1,2.5,2.5c0,1.4-1.1,2.5-2.5,2.5h-1.6   c-1.4,0-2.5-1.1-2.5-2.5C49.6,64.1,50.7,63,52.1,63z M45.2,43.5h4.7c0.7,0,1.2,0.6,1.2,1.2c0,0.7-0.6,1.2-1.2,1.2h-4.7   c-0.7,0-1.2-0.6-1.2-1.2C44,44.1,44.5,43.5,45.2,43.5z M44.3,56h1.6c1.4,0,2.5,1.1,2.5,2.5c0,1.4-1.1,2.5-2.5,2.5h-1.6   c-1.4,0-2.5-1.1-2.5-2.5C41.8,57.1,42.9,56,44.3,56z M41.5,51.5c0-1.4,1.1-2.5,2.5-2.5h1.6c1.4,0,2.5,1.1,2.5,2.5   c0,1.4-1.1,2.5-2.5,2.5H44C42.7,54,41.5,52.9,41.5,51.5z M44.3,63h1.6c1.4,0,2.5,1.1,2.5,2.5c0,1.4-1.1,2.5-2.5,2.5h-1.6   c-1.4,0-2.5-1.1-2.5-2.5C41.8,64.1,42.9,63,44.3,63z M37,43.5h4.7c0.7,0,1.2,0.6,1.2,1.2c0,0.7-0.6,1.2-1.2,1.2H37   c-0.7,0-1.2-0.6-1.2-1.2C35.7,44.1,36.3,43.5,37,43.5z M36.1,56h1.6c1.4,0,2.5,1.1,2.5,2.5c0,1.4-1.1,2.5-2.5,2.5h-1.6   c-1.4,0-2.5-1.1-2.5-2.5C33.6,57.1,34.7,56,36.1,56z M33.4,51.5c0-1.4,1.1-2.5,2.5-2.5h1.6c1.4,0,2.5,1.1,2.5,2.5   c0,1.4-1.1,2.5-2.5,2.5h-1.6C34.5,54,33.4,52.9,33.4,51.5z M36.2,63h1.6c1.4,0,2.5,1.1,2.5,2.5c0,1.4-1.1,2.5-2.5,2.5h-1.6   c-1.4,0-2.5-1.1-2.5-2.5C33.7,64.1,34.8,63,36.2,63z M28.8,43.5h4.7c0.7,0,1.2,0.6,1.2,1.2c0,0.7-0.6,1.2-1.2,1.2h-4.7   c-0.7,0-1.2-0.6-1.2-1.2C27.5,44.1,28.1,43.5,28.8,43.5z M20.6,43.5h4.7c0.7,0,1.2,0.6,1.2,1.2c0,0.7-0.6,1.2-1.2,1.2h-4.7   c-0.7,0-1.2-0.6-1.2-1.2C19.3,44.1,19.9,43.5,20.6,43.5z M21.1,63h1.6c1.4,0,2.5,1.1,2.5,2.5c0,1.4-1.1,2.5-2.5,2.5h-1.6   c-1.4,0-2.5-1.1-2.5-2.5C18.6,64.1,19.7,63,21.1,63z M18.5,58.5c0-1.4,1.1-2.5,2.5-2.5h1.6c1.4,0,2.5,1.1,2.5,2.5   c0,1.4-1.1,2.5-2.5,2.5H21C19.6,61,18.5,59.8,18.5,58.5z M20.8,49h1.6c1.4,0,2.5,1.1,2.5,2.5c0,1.4-1.1,2.5-2.5,2.5h-1.6   c-1.4,0-2.5-1.1-2.5-2.5C18.3,50.2,19.4,49,20.8,49z M12.4,43.5h4.7c0.7,0,1.2,0.6,1.2,1.2c0,0.7-0.6,1.2-1.2,1.2h-4.7   c-0.7,0-1.2-0.6-1.2-1.2C11.2,44.1,11.7,43.5,12.4,43.5z M13,49h1.6c1.4,0,2.5,1.1,2.5,2.5c0,1.4-1.1,2.5-2.5,2.5H13   c-1.4,0-2.5-1.1-2.5-2.5C10.5,50.2,11.7,49,13,49z M17.4,58.5c0,1.4-1.1,2.5-2.5,2.5h-1.6c-1.4,0-2.5-1.1-2.5-2.5   c0-1.4,1.1-2.5,2.5-2.5h1.6C16.3,56,17.4,57.1,17.4,58.5z M14.5,77.3H13c-1.3,0-2.4-1.3-2.4-2.9s1.1-2.9,2.4-2.9h1.5   c1.3,0,2.4,1.3,2.4,2.9S15.8,77.3,14.5,77.3z M14.9,68h-1.6c-1.4,0-2.5-1.1-2.5-2.5c0-1.4,1.1-2.5,2.5-2.5h1.6   c1.4,0,2.5,1.1,2.5,2.5C17.4,66.9,16.3,68,14.9,68z M22.5,77.3h-1.8c-1.6,0-2.9-1.3-2.9-2.9s1.3-2.9,2.9-2.9h1.8   c1.6,0,2.9,1.3,2.9,2.9S24.1,77.3,22.5,77.3z M28.2,49h1.6c1.4,0,2.5,1.1,2.5,2.5c0,1.4-1.1,2.5-2.5,2.5h-1.6   c-1.4,0-2.5-1.1-2.5-2.5C25.7,50.2,26.8,49,28.2,49z M28.4,56H30c1.4,0,2.5,1.1,2.5,2.5c0,1.4-1.1,2.5-2.5,2.5h-1.6   c-1.4,0-2.5-1.1-2.5-2.5C25.9,57.1,27,56,28.4,56z M25.9,65.5c0-1.4,1.1-2.5,2.5-2.5h1.6c1.4,0,2.5,1.1,2.5,2.5   c0,1.4-1.1,2.5-2.5,2.5h-1.6C27.1,68,25.9,66.9,25.9,65.5z M60.5,77.2H29.5c-1.2,0-2.2-1.3-2.2-2.8s1-2.8,2.2-2.8h31.1   c1.2,0,2.2,1.3,2.2,2.8S61.8,77.2,60.5,77.2z M61.1,68h-1.6c-1.4,0-2.5-1.1-2.5-2.5c0-1.4,1.1-2.5,2.5-2.5h1.6   c1.4,0,2.5,1.1,2.5,2.5C63.6,66.9,62.4,68,61.1,68z M68.7,77.3H67c-1.6,0-2.9-1.3-2.9-2.9s1.3-2.9,2.9-2.9h1.8   c1.6,0,2.9,1.3,2.9,2.9S70.3,77.3,68.7,77.3z M74.7,49h1.6c1.4,0,2.5,1.1,2.5,2.5c0,1.4-1.1,2.5-2.5,2.5h-1.6   c-1.4,0-2.5-1.1-2.5-2.5C72.2,50.2,73.3,49,74.7,49z M74.9,56h1.6c1.4,0,2.5,1.1,2.5,2.5c0,1.4-1.1,2.5-2.5,2.5h-1.6   c-1.4,0-2.5-1.1-2.5-2.5C72.4,57.1,73.5,56,74.9,56z M76.9,76.9h-2.2c-0.6,0-1.1-0.5-1.1-1.1s0.5-1.1,1.1-1.1h2.2   c0.6,0,1.1,0.5,1.1,1.1S77.5,76.9,76.9,76.9z M76.6,68h-1.6c-1.4,0-2.5-1.1-2.5-2.5c0-1.4,1.1-2.5,2.5-2.5h1.6   c1.4,0,2.5,1.1,2.5,2.5C79.1,66.9,77.9,68,76.6,68z M82.4,76.9h-2.2c-0.6,0-1.1-0.5-1.1-1.1s0.5-1.1,1.1-1.1h2.2   c0.6,0,1.1,0.5,1.1,1.1S83,76.9,82.4,76.9z M82.4,74.1h-2.2c-0.6,0-1.1-0.5-1.1-1.1s0.5-1.1,1.1-1.1h2.2c0.6,0,1.1,0.5,1.1,1.1   S83,74.1,82.4,74.1z M87.8,76.9h-2.2c-0.6,0-1.1-0.5-1.1-1.1s0.5-1.1,1.1-1.1h2.2c0.6,0,1.1,0.5,1.1,1.1S88.4,76.9,87.8,76.9z    M90,68h-7.3c-1.1,0-2-1.1-2-2.6s0.9-2.6,2-2.6H90c1.1,0,2,1.1,2,2.6S91.1,68,90,68z"></path></g><g display="none"><path display="inline" fill="#000000" d="M73.9,5H14.7v90h69.8V15.7L73.9,5z M21,20.8h49.7v2.8H21V20.8z M21,26.7h49.7v2.8H21V26.7   z M21,44h44.9v2.8H21V44z M21,49.8h44.9v2.8H21V49.8z M21,55.7h39v2.8H21V55.7z M21,61.5h39v2.8H21V61.5z M69.1,76H21v-2.8h48.1V76   z M69.1,70.2H21v-2.8h48.1V70.2z M78.3,40.8H21V38h57.3V40.8z M78.3,35H21v-2.8h57.3V35z"></path></g><g display="none"><path display="inline" fill="#000000" d="M74.6,5H15.4v90h69.8V15.7L74.6,5z M76.1,26.9V28H59.6v-1.1H76.1z M59.6,32.4v-1.1h16.5   v1.1H59.6z M76.1,33.4v1.1H59.6v-1.1H76.1z M59.6,30.1V29h16.5v1.1H59.6z M23,14.2h46.5v2H23V14.2z M23,18.9h46.5v2H23V18.9z    M41.3,32.4v-1.1h16.5v1.1H41.3z M57.9,33.4v1.1H41.3v-1.1H57.9z M41.3,30.1V29h16.5v1.1H41.3z M41.3,28v-1.1h16.5V28H41.3z    M23,26.9h16.5V28H23V26.9z M23,29h16.5v1.1H23V29z M23,31.3h16.5v1.1H23V31.3z M23,33.4h16.5v1.1H23V33.4z M22.8,40.9h1v19.3H27   v-9.7h5.1v9.7h1.6V47.9h5.1v12.4h1.5V42.4h5.1v17.9h1.6V42.4h5.1v17.9h1.5V47.9h5.1v12.4h1.6v-9.7h5.1v9.7h1.5v-7.4h5.1v7.4h6.3v1   H23.8h-1h0V40.9z M29.7,85.8c-4.2,0-7.6-3.4-7.6-7.6s3.4-7.6,7.6-7.6c0,0,0,0,0,0v7.6h7.5C37.3,82.5,33.9,85.8,29.7,85.8z    M79.2,80.1l-2-3.4L76.6,84L72.7,79l-5.5-2c-0.2,0.2-0.4,0.3-0.7,0.3c0,0-0.1,0-0.1,0L62,81.7l-2.1-5.6c-0.1,0-0.3,0-0.4-0.1   l-5,4.4l-5.6-4.3c-0.1,0.1-0.3,0.2-0.5,0.2c-0.2,0-0.3-0.1-0.4-0.1l-5.7,6.4l-0.4-0.3l5.7-6.4c-0.1-0.1-0.1-0.3-0.1-0.5   c0-0.5,0.4-0.9,0.9-0.9c0.5,0,0.9,0.4,0.9,0.9c0,0.1,0,0.3-0.1,0.4l5.2,4l4.6-4.1C59,75.6,59,75.4,59,75.2c0-0.5,0.4-0.9,0.9-0.9   s0.9,0.4,0.9,0.9c0,0.3-0.2,0.6-0.5,0.8l1.8,4.8l3.7-3.8c-0.2-0.2-0.3-0.4-0.3-0.7c0-0.5,0.4-0.9,0.9-0.9s0.9,0.4,0.9,0.9   c0,0.1,0,0.1,0,0.2l5.6,2l3.1,4.2l0.5-6.2c-0.4-0.1-0.6-0.5-0.6-0.9c0-0.5,0.4-0.9,0.9-0.9s0.9,0.4,0.9,0.9c0,0.3-0.1,0.5-0.4,0.7   l2,3.5L79.2,80.1z"></path></g><g display="none"><path display="inline" fill="#000000" d="M83.6,48.4c0.8-2.3,1.3-4.8,1.3-7.4c0-12.3-10-22.3-22.3-22.3c-7.8,0-14.6,4-18.6,10   c-2.8-1.9-6.2-2.9-9.9-2.9c-10,0-18.1,8.1-18.1,18.1c0,1.5,0.2,3,0.6,4.5C9.9,49,4.8,54.5,4.8,61.1c0,7.1,5.7,12.8,12.8,12.8h64.5   c7.1,0,12.8-5.7,12.8-12.8C95,54.5,90,49.1,83.6,48.4z M42.7,44.9l7,7l7-7l1.9,1.9l-7,7l0,0l-1.9,1.9l0,0l0,0l-1.9-1.9l0,0l-7-7   L42.7,44.9z M49.8,61.4L49.8,61.4L49.8,61.4l-8.9-8.9l1.9-1.9l7,7l7-7l1.9,1.9L49.8,61.4z"></path></g><g display="none"><polygon display="inline" fill="#000000" points="52.4,95.3 42.9,57 4.6,47.5 94.8,5.2  "></polygon></g><g display="none"><path display="inline" fill="#000000" d="M5.2,23.8v15.9h90V23.8H5.2z M56.8,35.6H8.4v-8.1h48.4V35.6z M85.6,36   c-2.3,0-4.2-1.9-4.2-4.2s1.9-4.2,4.2-4.2s4.2,1.9,4.2,4.2S87.9,36,85.6,36z"></path><path display="inline" fill="#000000" d="M5.2,43.6v15.9h90V43.6H5.2z M56.8,55.4H8.4v-8.1h48.4V55.4z M85.6,55.8   c-2.3,0-4.2-1.9-4.2-4.2s1.9-4.2,4.2-4.2s4.2,1.9,4.2,4.2S87.9,55.8,85.6,55.8z"></path><path display="inline" fill="#000000" d="M5.2,63.1v15.9h90V63.1H5.2z M56.8,74.9H8.4v-8.1h48.4V74.9z M85.6,75.2   c-2.3,0-4.2-1.9-4.2-4.2s1.9-4.2,4.2-4.2s4.2,1.9,4.2,4.2S87.9,75.2,85.6,75.2z"></path></g><g display="none"><polygon display="inline" fill="#000000" points="65.6,36.2 34.3,36.2 32.3,26.4 67.6,26.4  "></polygon><polygon display="inline" fill="#000000" points="34.3,36.2 65.6,36.2 63.6,42.7 36.3,42.7  "></polygon><polygon display="inline" fill="#000000" points="59,50.1 41,50.1 39,42.1 61,42.1  "></polygon><path display="inline" fill="#000000" d="M43.9,28.9c0,1-0.8,1.9-1.9,1.9l0,0c-1,0-1.9-0.8-1.9-1.9V16.2c0-1,0.8-1.9,1.9-1.9l0,0   c1,0,1.9,0.8,1.9,1.9V28.9z"></path><path display="inline" fill="#000000" d="M59.1,28.9c0,1-0.8,1.9-1.9,1.9l0,0c-1,0-1.9-0.8-1.9-1.9V16.2c0-1,0.8-1.9,1.9-1.9l0,0   c1,0,1.9,0.8,1.9,1.9V28.9z"></path><path display="inline" fill="#000000" d="M43.7,76.5c-0.2-3.3,1.3-6.6,4.7-9.8l0,0c4.1-4,6-8.2,5.7-12.5   c-0.5-6.9-6.7-11.3-6.9-11.5l-1.9,2.7c0.1,0,5.2,3.7,5.5,9.1c0.2,3.3-1.3,6.6-4.7,9.8l0,0c-4.1,4-6,8.2-5.7,12.5   c0.5,6.9,6.7,11.3,6.9,11.5l1.9-2.7C49.2,85.5,44.1,81.8,43.7,76.5z"></path></g><g display="none"><g display="inline"><path fill="#000000" d="M70.9,83c0,6.7-6.4,12.2-14.3,12.2h-13c-7.9,0-14.3-5.4-14.3-12.2l0,0c0-6.7,6.4-12.2,14.3-12.2h13    C64.5,70.8,70.9,76.3,70.9,83L70.9,83z"></path><g><path fill="#000000" d="M67.1,72.1c0,9.4-7.6,17.1-17.1,17.1l0,0c-9.4,0-17.1-7.6-17.1-17.1V22.7C33,13.2,40.6,5.6,50,5.6l0,0     c9.4,0,17.1,7.6,17.1,17.1V72.1z"></path><path fill="#000000" d="M50,89.8c-9.7,0-17.7-7.9-17.7-17.7V22.7C32.4,12.9,40.3,5,50,5c9.7,0,17.7,7.9,17.7,17.7v49.5     C67.7,81.9,59.8,89.8,50,89.8z M50,6.2c-9.1,0-16.5,7.4-16.5,16.5v49.5c0,9.1,7.4,16.5,16.5,16.5c9.1,0,16.5-7.4,16.5-16.5V22.7     C66.5,13.6,59.1,6.2,50,6.2z"></path></g><path fill="#000000" d="M58.1,17.9c0,1-0.8,1.9-1.9,1.9l0,0c-1,0-1.9-0.8-1.9-1.9l0,0c0-1,0.8-1.9,1.9-1.9l0,0    C57.3,16,58.1,16.8,58.1,17.9L58.1,17.9z"></path><path fill="#000000" d="M58.1,23.7c0,1-0.8,1.9-1.9,1.9l0,0c-1,0-1.9-0.8-1.9-1.9l0,0c0-1,0.8-1.9,1.9-1.9l0,0    C57.3,21.8,58.1,22.7,58.1,23.7L58.1,23.7z"></path><path fill="#000000" d="M58.1,29.5c0,1-0.8,1.9-1.9,1.9l0,0c-1,0-1.9-0.8-1.9-1.9l0,0c0-1,0.8-1.9,1.9-1.9l0,0    C57.3,27.6,58.1,28.4,58.1,29.5L58.1,29.5z"></path><path fill="#000000" d="M44.4,43.7c0,0.6-0.4,1-1,1l0,0c-0.6,0-1-0.4-1-1V22.4c0-0.6,0.4-1,1-1l0,0c0.6,0,1,0.4,1,1V43.7z"></path><path fill="#000000" d="M55.7,76.3c0,3.2-2.6,5.8-5.8,5.8l0,0c-3.2,0-5.8-2.6-5.8-5.8l0,0c0-3.2,2.6-5.8,5.8-5.8l0,0    C53.1,70.5,55.7,73.1,55.7,76.3L55.7,76.3z"></path><path fill="#000000" d="M44.5,19c0,0.6-0.5,1.1-1.1,1.1l0,0c-0.6,0-1.1-0.5-1.1-1.1v-1.4c0-0.6,0.5-1.1,1.1-1.1l0,0    c0.6,0,1.1,0.5,1.1,1.1V19z"></path><circle cx="49.9" cy="76.3" r="3.5"></circle><path fill="#000000" d="M50.5,75.2c0,0.3-0.3,0.6-0.6,0.6l0,0c-0.3,0-0.6-0.3-0.6-0.6v-2.8c0-0.3,0.3-0.6,0.6-0.6l0,0    c0.3,0,0.6,0.3,0.6,0.6V75.2z"></path></g></g></svg>