<?xml version="1.0" encoding="UTF-8" standalone="no"?>
<svg
   xmlns:dc="http://purl.org/dc/elements/1.1/"
   xmlns:cc="http://creativecommons.org/ns#"
   xmlns:rdf="http://www.w3.org/1999/02/22-rdf-syntax-ns#"
   xmlns:svg="http://www.w3.org/2000/svg"
   xmlns="http://www.w3.org/2000/svg"
   height="1000"
   width="1000"
   id="svg2"
   xml:space="preserve"
   enable-background="new 0 0 100 100"
   viewBox="0 0 1000 1000"
   y="0px"
   x="0px"
   version="1.1"><metadata
     id="metadata286"><rdf:RDF><cc:Work
         rdf:about=""><dc:format>image/svg+xml</dc:format><dc:type
           rdf:resource="http://purl.org/dc/dcmitype/StillImage" /><dc:title></dc:title></cc:Work></rdf:RDF></metadata><defs
     id="defs284" /><g
     transform="translate(0,900)"
     style="display:none"
     id="g4"
     display="none"><g
       style="display:inline"
       id="g6"
       display="inline"><path
         style="fill:#000000"
         id="path8"
         d="M 50,5 C 25.1,5 5,25.1 5,50 5,74.9 25.1,95 50,95 74.9,95 95,74.9 95,50 95,25.1 74.9,5 50,5 Z M 29,56.7 c -3.6,0 -6.6,-3 -6.6,-6.6 0,-3.6 3,-6.6 6.6,-6.6 3.6,0 6.6,3 6.6,6.6 0,3.7 -2.9,6.6 -6.6,6.6 z m 21,-0.2 c -3.6,0 -6.6,-3 -6.6,-6.6 0,-3.6 3,-6.6 6.6,-6.6 3.6,0 6.6,3 6.6,6.6 0,3.7 -3,6.6 -6.6,6.6 z m 22.3,2.4 c -4.9,0 -8.9,-4 -8.9,-8.9 0,-4.9 4,-8.9 8.9,-8.9 4.9,0 8.9,4 8.9,8.9 0.1,4.9 -3.9,8.9 -8.9,8.9 z" /></g></g><g
     transform="matrix(11.018832,0,0,11.018832,-50.094162,-51.789076)"
     id="g10"><g
       id="g12"><path
         style="fill:#000000"
         id="path14"
         d="M 95,12.9 C 94.7,8.5 91.1,5 86.7,5 L 13.3,5 C 8.9,5 5.3,8.5 5,12.9 l 0,0 0,82.1 90,0 0,-82.1 0,0 z m -66.6,-4 c 1.3,0 2.4,1.1 2.4,2.4 0,1.3 -1.1,2.4 -2.4,2.4 -1.3,0 -2.4,-1 -2.4,-2.4 0,-1.4 1.1,-2.4 2.4,-2.4 z m -6.7,0 c 1.3,0 2.4,1.1 2.4,2.4 0,1.3 -1.1,2.4 -2.4,2.4 -1.3,0 -2.4,-1.1 -2.4,-2.4 0,-1.3 1,-2.4 2.4,-2.4 z m -7,0 c 1.3,0 2.4,1.1 2.4,2.4 0,1.3 -1.1,2.4 -2.4,2.4 -1.3,0 -2.4,-1.1 -2.4,-2.4 0,-1.3 1,-2.4 2.4,-2.4 z m 75.1,80.9 -48,0 0,-14.3 -21.3,0 0,14.2 -10.3,0 0,-72.8 79.5,0 0,72.9 z" /><rect
         style="fill:#000000"
         id="rect16"
         height="13.1"
         width="73.199997"
         y="21.200001"
         x="13.5" /><rect
         style="fill:#000000"
         id="rect18"
         height="2.2"
         width="32.099998"
         y="39.900002"
         x="34" /><rect
         style="fill:#000000"
         id="rect20"
         height="2.2"
         width="32.099998"
         y="43.200001"
         x="34" /><rect
         style="fill:#000000"
         id="rect22"
         height="2.2"
         width="32.099998"
         y="46.599998"
         x="34" /><rect
         style="fill:#000000"
         id="rect24"
         height="2.2"
         width="32.099998"
         y="76.699997"
         x="47.900002" /><rect
         style="fill:#000000"
         id="rect26"
         height="2.2"
         width="32.099998"
         y="80.099998"
         x="47.900002" /><rect
         style="fill:#000000"
         id="rect28"
         height="2.2"
         width="32.099998"
         y="83.400002"
         x="47.900002" /><path
         style="fill:#000000"
         id="path30"
         d="m 17,59.9 c -1.5,0 -2.7,1.2 -2.7,2.7 0,1.5 1.2,2.7 2.7,2.7 1.5,0 2.7,-1.2 2.7,-2.7 0,-1.5 -1.2,-2.7 -2.7,-2.7 z m 0.4,4.4 -1.4,-1.5 0.1,-0.1 -0.1,-0.1 1.5,-1.5 0.3,0.3 -1.3,1.3 1.3,1.3 -0.4,0.3 z" /><path
         style="fill:#000000"
         id="path32"
         d="m 82.7,59.9 c -1.5,0 -2.7,1.2 -2.7,2.7 0,1.5 1.2,2.7 2.7,2.7 1.5,0 2.7,-1.2 2.7,-2.7 0,-1.5 -1.2,-2.7 -2.7,-2.7 z m -0.4,4.2 -0.3,-0.3 1.3,-1.3 -1.3,-1.3 0.3,-0.3 1.5,1.5 -0.1,0.1 0.1,0.1 -1.5,1.5 z" /><rect
         style="fill:#000000"
         id="rect34"
         height="10.9"
         width="10.9"
         y="57.400002"
         x="25.299999" /><rect
         style="fill:#000000"
         id="rect36"
         height="10.9"
         width="10.9"
         y="57.400002"
         x="38" /><rect
         style="fill:#000000"
         id="rect38"
         height="10.9"
         width="10.9"
         y="57.400002"
         x="51.099998" /><rect
         style="fill:#000000"
         id="rect40"
         height="10.9"
         width="10.9"
         y="57.400002"
         x="63.900002" /></g></g><g
     transform="translate(0,900)"
     style="display:none"
     id="g42"
     display="none"><circle
       style="display:inline;fill:#000000"
       id="circle44"
       r="0.2"
       cy="8"
       cx="50.400002"
       display="inline" /><circle
       style="display:inline;fill:#000000"
       id="circle46"
       r="0.2"
       cy="7.4000001"
       cx="50.799999"
       display="inline" /><circle
       style="display:inline;fill:#000000"
       id="circle48"
       r="0.2"
       cy="8.3000002"
       cx="50.799999"
       display="inline" /><circle
       style="display:inline;fill:#000000"
       id="circle50"
       r="0.2"
       cy="8.6999998"
       cx="50.400002"
       display="inline" /><circle
       style="display:inline;fill:#000000"
       id="circle52"
       r="0.2"
       cy="8.1000004"
       cx="49.599998"
       display="inline" /><circle
       style="display:inline;fill:#000000"
       id="circle54"
       r="0.2"
       cy="8.6999998"
       cx="49.5"
       display="inline" /><circle
       style="display:inline;fill:#000000"
       id="circle56"
       r="0.2"
       cy="7.9000001"
       cx="50"
       display="inline" /><circle
       style="display:inline;fill:#000000"
       id="circle58"
       r="0.2"
       cy="7.0999999"
       cx="50.5"
       display="inline" /><circle
       style="display:inline;fill:#000000"
       id="circle60"
       r="0.2"
       cy="8.3000002"
       cx="50"
       display="inline" /><circle
       style="display:inline;fill:#000000"
       id="circle62"
       r="0.2"
       cy="8.8000002"
       cx="50"
       display="inline" /><circle
       style="display:inline;fill:#000000"
       id="circle64"
       r="0.2"
       cy="7.9000001"
       cx="50.900002"
       display="inline" /><circle
       style="display:inline;fill:#000000"
       id="circle66"
       r="0.2"
       cy="7.9000001"
       cx="49"
       display="inline" /><circle
       style="display:inline;fill:#000000"
       id="circle68"
       r="0.2"
       cy="8.3000002"
       cx="49.099998"
       display="inline" /><circle
       style="display:inline;fill:#000000"
       id="circle70"
       r="0.2"
       cy="7.4000001"
       cx="49.200001"
       display="inline" /><circle
       style="display:inline;fill:#000000"
       id="circle72"
       r="0.2"
       cy="7.6999998"
       cx="49.599998"
       display="inline" /><circle
       style="display:inline;fill:#000000"
       id="circle74"
       r="0.2"
       cy="6.9000001"
       cx="50"
       display="inline" /><circle
       style="display:inline;fill:#000000"
       id="circle76"
       r="0.2"
       cy="7.4000001"
       cx="49.900002"
       display="inline" /><circle
       style="display:inline;fill:#000000"
       id="circle78"
       r="0.2"
       cy="7.0999999"
       cx="49.5"
       display="inline" /><circle
       style="display:inline;fill:#000000"
       id="circle80"
       r="0.2"
       cy="7.5999999"
       cx="50.400002"
       display="inline" /><g
       style="display:inline"
       id="g82"
       display="inline"><path
         style="fill:#000000"
         id="path84"
         d="m 71.6,11.2 0,-1.4 0,0 c 0,-0.1 0,-0.3 -0.1,-0.4 C 71.4,9.1 71.1,8.6 71,8.4 70.5,7.7 69.8,6.9 68.4,6.6 67,6.3 57.5,4.7 46.8,5.2 39,5.4 32.7,6.4 31.6,6.7 c -0.7,0.2 -1.3,0.5 -1.8,0.9 -0.3,0.2 -1,0.9 -1.2,1.3 -0.1,0.3 -0.2,0.6 -0.2,0.8 l 0,0 0,1.1 0,0 0,78.2 0,0 0,1.4 0,0 c 0,0.1 0,0.3 0.1,0.4 0.1,0.3 0.4,0.8 0.5,1 0.5,0.7 1.2,1.5 2.6,1.8 1.4,0.3 10.9,1.9 21.6,1.4 7.9,-0.2 14.2,-1.2 15.3,-1.5 0.7,-0.2 1.3,-0.5 1.8,-0.9 0.3,-0.2 1,-0.9 1.2,-1.3 0.1,-0.3 0.2,-0.6 0.2,-0.8 l 0,0 0,-1.5 0,0 -0.1,-77.8 0,0 z M 50,6.6 c 0.7,0 1.2,0.6 1.2,1.2 0,0.6 -0.5,1.3 -1.2,1.3 -0.7,0 -1.2,-0.6 -1.2,-1.2 0,-0.6 0.5,-1.3 1.2,-1.3 z M 37.5,7.3 c 0.5,0 0.9,0.4 0.9,0.9 0,0.5 -0.4,0.9 -0.9,0.9 -0.5,0 -0.9,-0.4 -0.9,-0.9 0,-0.5 0.4,-0.9 0.9,-0.9 z m 31,80 -37.2,0 0,-76.5 37.2,0 0,76.5 z" /><path
         style="fill:#000000"
         id="path86"
         d="m 37.5,9 c 0.4,0 0.8,-0.4 0.8,-0.8 0,-0.4 -0.3,-0.8 -0.8,-0.8 -0.5,0 -0.8,0.4 -0.8,0.8 0,0.4 0.4,0.8 0.8,0.8 z m 0,-1.5 c 0.4,0 0.7,0.3 0.7,0.7 0,0.4 -0.3,0.7 -0.7,0.7 -0.4,0 -0.7,-0.3 -0.7,-0.7 0,-0.4 0.3,-0.7 0.7,-0.7 z" /></g></g><g
     transform="translate(0,900)"
     style="display:none"
     id="g88"
     display="none"><g
       style="display:inline"
       id="g90"
       display="inline"><path
         style="fill:#000000"
         id="path92"
         d="m 50.1,63.5 -0.1,-0.1 -0.1,0.1 -19,-19 c -1.3,2.7 -2,5.7 -2,8.9 l 0,20.7 c 0,11.6 9.4,21 21,21 11.6,0 21,-9.4 21,-21 l 0,-20.7 c 0,-3.1 -0.7,-6.1 -1.9,-8.7 L 50.1,63.5 Z" /><path
         style="fill:#000000"
         id="path94"
         d="M 50,59.6 67.6,42 C 63.9,36.2 57.4,32.4 50,32.4 c -7.4,0 -13.8,3.8 -17.6,9.5 L 50,59.6 Z M 50.1,40 c 2.2,0 3.9,1.8 3.9,3.9 0,2.2 -1.8,3.9 -3.9,3.9 -2.2,0 -3.9,-1.8 -3.9,-3.9 -0.1,-2.1 1.7,-3.9 3.9,-3.9 z" /></g><path
       style="display:inline;fill:#000000"
       id="path96"
       d="m 49.6,28.7 c -0.2,-2.2 0.9,-4.5 3.2,-6.8 l 0,0 c 2.8,-2.7 4.1,-5.6 3.9,-8.6 C 56.3,8.6 52.1,5.5 51.9,5.4 l -1.3,1.8 c 0,0 3.5,2.6 3.8,6.2 0.2,2.2 -0.9,4.5 -3.2,6.8 l 0,0 c -2.8,2.7 -4.1,5.6 -3.9,8.6 0.4,4.7 4.6,7.8 4.8,7.9 l 1.3,-1.8 c 0,0 -3.5,-2.6 -3.8,-6.2 z"
       display="inline" /></g><g
     transform="translate(0,900)"
     style="display:none"
     id="g98"
     display="none"><path
       style="display:inline;fill:#000000"
       id="path100"
       d="m 72.9,27.2 c -2.7,0 -5.3,0.5 -7.7,1.4 -3,-8.5 -11.1,-14.7 -20.6,-14.7 -11.2,0 -20.4,8.4 -21.7,19.2 -1.7,-1 -3.7,-1.6 -5.8,-1.6 -6.4,0 -11.5,5.2 -11.5,11.5 0,6.4 5.2,11.5 11.5,11.5 0.5,0 0.9,0 1.3,-0.1 -0.1,0.7 -0.1,1.4 -0.1,2.2 0,15.8 12.8,28.6 28.6,28.6 10.8,0 20.1,-6 25,-14.8 0.3,0 0.7,0 1,0 12,0 21.7,-9.7 21.7,-21.7 0,-11.8 -9.7,-21.5 -21.7,-21.5 z"
       display="inline" /></g><g
     transform="translate(0,900)"
     style="display:none"
     id="g102"
     display="none"><g
       style="display:inline"
       id="g104"
       display="inline"><path
         style="fill:#000000"
         id="path106"
         d="M 78.8,49.1 C 78.2,41.4 71.4,35.7 63.7,36.3 62,36.4 60.3,36.9 58.8,37.6 56.5,32.3 50.9,28.8 44.8,29.3 37.6,29.9 32.2,35.8 31.9,42.8 30.8,42.2 29.5,42 28.1,42.1 24,42.4 21,46 21.3,50.1 c 0.3,4.1 3.9,7.1 8,6.8 0.3,0 0.6,-0.1 0.9,-0.1 0,0.5 0,0.9 0,1.4 0.5,6.4 4.2,11.7 9.4,14.6 l -0.3,9.4 5.1,-3.1 -1.3,9.4 7.9,-13.6 c 6.5,-0.8 11.9,-5 14.4,-10.7 0.2,0 0.4,0 0.6,0 7.7,-0.6 13.4,-7.4 12.8,-15.1 z" /><path
         style="fill:#000000"
         id="path108"
         d="m 59.5,22.2 c 0.2,0 0.3,0 0.4,-0.1 0,0.2 0,0.5 0,0.7 0.4,5.3 5.1,9.2 10.3,8.8 C 73,31.4 75.4,30 77,28 l 0,1.5 3,-1.8 -0.8,5.6 4.9,-8.6 -1.6,-0.2 c 1.8,-1.5 2.8,-3.7 2.6,-6.2 -0.3,-4 -3.8,-7 -7.8,-6.7 -0.9,0.1 -1.8,0.3 -2.5,0.7 C 73.6,9.5 70.7,7.7 67.5,8 c -3.7,0.3 -6.6,3.4 -6.7,7 -0.6,-0.3 -1.3,-0.4 -2,-0.4 -2.1,0.2 -3.7,2 -3.5,4.2 0.2,2 2.1,3.6 4.2,3.4 z" /><path
         style="fill:#000000"
         id="path110"
         d="m 19.7,25.9 c 0,0.1 0,0.2 0,0.4 0.1,1.1 0.5,2 1.2,2.8 l -0.1,4.5 3,-1.8 -0.8,5.6 4.2,-7.3 c 0.8,-0.5 1.5,-1.3 1.9,-2.1 0.1,0 0.1,0 0.2,0 2.1,-0.2 3.6,-2 3.4,-4 -0.2,-2.1 -2,-3.6 -4,-3.4 -0.5,0 -0.9,0.2 -1.3,0.4 -0.6,-1.4 -2.1,-2.4 -3.7,-2.2 -1.9,0.2 -3.4,1.7 -3.4,3.6 -0.3,-0.1 -0.7,-0.2 -1,-0.2 -1.1,0.1 -1.9,1 -1.8,2.1 0.1,1.1 1,1.9 2.1,1.8 0,-0.2 0.1,-0.2 0.1,-0.2 z" /></g></g><g
     transform="translate(0,900)"
     style="display:none"
     id="g112"
     display="none"><g
       style="display:inline"
       id="g114"
       display="inline"><path
         style="fill:#000000"
         id="path116"
         d="m 26.6,74.9 -4.6,3 c -1.2,0.8 -2.1,2.1 -1.7,3.6 0.4,1.6 2.1,2.6 3.7,2.1 1.4,-0.4 2.2,-1.8 2.2,-3.1 l 0.4,-5.6 z" /><path
         style="fill:#000000"
         id="path118"
         d="m 29.1,84.4 -4.6,3 c -1.2,0.8 -2.1,2.1 -1.7,3.6 0.4,1.6 2.1,2.6 3.7,2.1 1.4,-0.4 2.2,-1.8 2.2,-3.1 l 0.4,-5.6 z" /><path
         style="fill:#000000"
         id="path120"
         d="m 38.1,81.1 -4.6,3 c -1.2,0.8 -2.1,2.1 -1.7,3.6 0.4,1.6 2.1,2.6 3.7,2.1 1.4,-0.4 2.2,-1.8 2.2,-3.1 l 0.4,-5.6 z" /></g><path
       style="display:inline;fill:#000000"
       id="path122"
       d="m 47.5,79.9 -4.6,3 c -1.2,0.8 -2.1,2.1 -1.7,3.6 0.4,1.6 2.1,2.6 3.7,2.1 1.4,-0.4 2.2,-1.8 2.2,-3.1 l 0.4,-5.6 z"
       display="inline" /><path
       style="display:inline;fill:#000000"
       id="path124"
       d="m 19.1,69 -4.6,3 c -1.2,0.8 -2.1,2.1 -1.7,3.6 0.4,1.6 2.1,2.6 3.7,2.1 1.4,-0.4 2.2,-1.8 2.2,-3.1 L 19.1,69 Z"
       display="inline" /><path
       style="display:inline;fill:#000000"
       id="path126"
       d="m 18.6,84.6 -4.6,3 c -1.2,0.8 -2.1,2.1 -1.7,3.6 0.4,1.6 2.1,2.6 3.7,2.1 1.4,-0.4 2.2,-1.8 2.2,-3.1 l 0.4,-5.6 z"
       display="inline" /><path
       style="display:inline;fill:#000000"
       id="path128"
       d="m 84.3,33.7 c -2.6,3.3 -6.6,5.4 -11.1,5.4 -7.7,0 -14,-6.3 -14,-14 0,-0.4 0,-0.7 0.1,-1.1 -0.2,0 -0.4,0 -0.7,0 -3.1,0 -5.7,-2.5 -5.7,-5.7 0,-1.1 0.3,-2.1 0.8,-2.9 C 50.4,12.7 46,11 41.2,11 31.1,11 22.8,18.6 21.6,28.4 20.1,27.5 18.3,27 16.4,27 10.7,26.9 6,31.6 6,37.3 c 0,5.8 4.7,10.4 10.4,10.4 0.4,0 0.8,0 1.2,-0.1 0,0.6 -0.1,1.3 -0.1,2 0,14.3 11.6,25.8 25.8,25.8 9.7,0 18.2,-5.4 22.6,-13.3 0.3,0 0.6,0 0.9,0 10.8,0 19.6,-8.8 19.6,-19.6 0,-3.2 -0.7,-6.2 -2.1,-8.8 z m -32.5,9.4 c -0.3,-1.2 0.4,-2.3 1.4,-3 l 3.8,-2.5 -0.2,4.7 c -0.1,1.1 -0.7,2.3 -1.9,2.6 -1.3,0.3 -2.7,-0.5 -3.1,-1.8 z m 7.2,7.1 c -0.1,1.1 -0.7,2.3 -1.9,2.6 -1.4,0.4 -2.8,-0.4 -3.1,-1.8 -0.3,-1.2 0.4,-2.3 1.4,-3 l 3.8,-2.5 -0.2,4.7 z m 7.5,-2.7 c -0.1,1.1 -0.7,2.3 -1.9,2.6 -1.4,0.4 -2.8,-0.4 -3.1,-1.8 -0.3,-1.2 0.4,-2.3 1.4,-3 l 3.8,-2.5 -0.2,4.7 z"
       display="inline" /><path
       style="display:inline;fill:#000000"
       id="path130"
       d="m 84.5,10.7 c -1.2,0 -2.3,0.2 -3.3,0.6 C 79.9,7.6 76.4,5 72.3,5 67.5,5 63.6,8.6 63,13.2 c -0.7,-0.4 -1.6,-0.7 -2.5,-0.7 -2.7,0 -4.9,2.2 -4.9,4.9 0,2.7 2.2,4.9 4.9,4.9 0.2,0 0.4,0 0.6,0 0,0.3 0,0.6 0,0.9 0,6.8 5.5,12.2 12.2,12.2 4.6,0 8.6,-2.6 10.7,-6.3 0.1,0 0.3,0 0.4,0 5.1,0 9.3,-4.2 9.3,-9.3 0.1,-5 -4.1,-9.1 -9.2,-9.1 z"
       display="inline" /></g><g
     transform="translate(0,900)"
     style="display:none"
     id="g132"
     display="none"><g
       style="display:inline"
       id="g134"
       display="inline"><path
         style="fill:#000000"
         id="path136"
         d="m 56.5,21.2 0,-4.9 c 0,-2.7 -1.7,-5 -4,-6 l 0,-3 c 0,-1.2 -1,-2.2 -2.2,-2.2 -1.2,0 -2.2,1 -2.2,2.2 l 0,2.8 c -2.6,0.8 -4.5,3.3 -4.5,6.2 l 0,1 c -1.5,0.3 -2.7,1.5 -3.1,3.1 -2.2,2.6 -10.4,14.6 -1.5,28 0,0.1 0,0.3 0,0.4 0,1.1 0.9,1.9 1.9,1.9 1,0 1.9,-0.9 1.9,-1.9 0,-1 -0.7,-1.7 -1.6,-1.9 -7.2,-10.9 -2.3,-20.1 0,-23.3 0.6,0.7 1.4,1.3 2.3,1.5 l 0,56.8 13,0 0,-44.7 -2.6,4.1 c -0.4,0.6 -1.2,0.8 -1.8,0.4 -0.6,-0.4 -0.8,-1.2 -0.4,-1.8 l 4.7,-7.5 0,-1 -2.6,4.1 c -0.4,0.6 -1.2,0.8 -1.8,0.4 -0.6,-0.4 -0.8,-1.2 -0.4,-1.8 l 4.7,-7.5 0,-0.6 -2.4,4 c -0.4,0.6 -1.2,0.8 -1.8,0.4 -0.6,-0.4 -0.8,-1.2 -0.4,-1.8 l 4.8,-7.4 z" /><path
         style="fill:#000000"
         id="path138"
         d="m 46,89.6 2,0 0,3.7 c 0,1 0.8,1.8 1.8,1.8 1,0 1.8,-0.8 1.8,-1.8 l 0,-3.7 2.1,0 2.6,-6.8 -12.9,0 2.6,6.8 z m 3.8,2.4 c 0.7,0 1.3,0.6 1.3,1.3 0,0.7 -0.6,1.3 -1.3,1.3 -0.7,0 -1.3,-0.6 -1.3,-1.3 0,-0.7 0.6,-1.3 1.3,-1.3 z" /></g></g><g
     transform="translate(0,900)"
     style="display:none"
     id="g140"
     display="none"><g
       style="display:inline"
       id="g142"
       display="inline"><path
         style="fill:#000000"
         id="path144"
         d="m 68.4,31.4 -28.5,0 c 0.7,-1.1 1.6,-2.2 2.8,-3.3 l 0,0 c 3.9,-3.8 5.8,-7.8 5.5,-12 C 47.7,9.5 41.8,5.2 41.5,5.1 l -1.8,2.6 c 0.1,0 5,3.6 5.3,8.7 0.2,3.1 -1.3,6.3 -4.5,9.4 l 0,0 c -1.9,1.8 -3.3,3.7 -4.2,5.6 l -4.5,0 c -3.3,0 -6.1,2.7 -6.1,6.1 l 0,39.8 c 0,3.3 2.7,6.1 6.1,6.1 l 14.2,0 c 0,2.8 1.9,5 4.2,5.1 l 0,5.3 c 0,0.7 0.5,1.2 1.2,1.2 0.7,0 1.2,-0.5 1.2,-1.2 l 0,-5.2 6.1,0 0,5.2 c 0,0.7 0.5,1.2 1.2,1.2 0.7,0 1.2,-0.5 1.2,-1.2 l 0,-5.2 0.3,0 c 2.3,0 4.2,-2.3 4.3,-5.1 l 2.6,0 c 3.3,0 6.1,-2.7 6.1,-6.1 l 0,-39.9 c 0.1,-3.3 -2.6,-6.1 -6,-6.1 z m -0.5,10.5 -12.9,0 0,-5.4 12.9,0 0,5.4 z" /><rect
         style="fill:#000000"
         id="rect146"
         height="1.6"
         width="10.1"
         y="37.299999"
         x="56.299999" /><rect
         style="fill:#000000"
         id="rect148"
         height="1.6"
         width="10.1"
         y="39.400002"
         x="56.299999" /></g></g><g
     transform="translate(0,900)"
     style="display:none"
     id="g150"
     display="none"><g
       style="display:inline"
       id="g152"
       display="inline"><path
         style="fill:#000000"
         id="path154"
         d="M 38.7,29.7 25.9,42.6 c -1.7,1.7 -1.7,4.6 0.1,6.3 l 6.5,6.5 9.1,-9.1 -5.2,-5.2 1.2,-1.2 5.2,5.2 8.8,-8.8 -6.5,-6.5 C 43.3,28 40.5,28 38.7,29.7 Z" /><path
         style="fill:#000000"
         id="path156"
         d="M 84.7,62.1 46.4,23.9 c -2.7,-2.7 -7,-2.7 -9.6,0 l -7.2,7.2 C 28.3,31 26.5,30.7 25.2,29.6 23.7,28.3 23,26.3 23.1,23.5 l 0,0 C 23.2,20.1 22.2,17.6 20.3,15.9 17.2,13.2 12.8,14 12.6,14 l 0.3,1.9 c 0,0 3.7,-0.6 6.1,1.5 1.5,1.3 2.2,3.3 2.1,6.1 l 0,0 c -0.1,3.3 0.9,5.9 2.8,7.5 1.2,1 2.6,1.6 3.9,1.8 l -7.6,7.6 c -2.7,2.7 -2.7,7 0,9.6 l 38.2,38.2 c 2.7,2.7 7,2.7 9.7,0 L 84.7,71.6 c 2.6,-2.5 2.6,-6.9 0,-9.5 z m -52.2,-4.3 -0.6,-0.6 0,0 -7.1,-7.1 C 22.4,47.7 22.3,43.7 24.7,41.3 L 37.5,28.5 c 2.4,-2.4 6.3,-2.4 8.8,0.1 l 7.1,7.1 0,0 0.6,0.6 -21.5,21.5 z" /><path
         style="fill:#000000"
         id="path158"
         d="m 56.6,26.8 c -0.4,0.9 -0.2,2 0.6,2.8 l 1.4,1.4 3.4,0.8 c 0.3,0.1 0.4,0.3 0.4,0.6 -0.1,0.3 -0.3,0.4 -0.6,0.4 l -1.8,-0.4 0.2,0.2 3.4,0.8 c 0.3,0.1 0.4,0.3 0.4,0.6 -0.1,0.3 -0.3,0.4 -0.6,0.4 l -1.8,-0.4 0.3,0.3 3.4,0.8 c 0.3,0.1 0.4,0.3 0.4,0.6 -0.1,0.3 -0.3,0.4 -0.6,0.4 L 63,35.4 75.4,47.8 79,44.2 63.2,28.4 c 0.2,-0.3 0.3,-0.7 0.2,-1.1 1.5,0.3 5.5,1.4 6.5,6.5 -0.2,0.3 -0.2,0.7 0.1,1 0.3,0.3 0.8,0.3 1.1,0 0.3,-0.3 0.3,-0.8 0,-1.1 0,0 -0.1,-0.1 -0.1,-0.1 -1.3,-6.2 -6.9,-7.2 -8.2,-7.4 -0.5,-0.3 -1.2,-0.3 -1.7,0 l -0.3,-0.3 c -0.8,-0.8 -2,-1 -3,-0.5 L 57,24.7 c -0.3,-0.3 -0.9,-0.3 -1.2,0 -0.3,0.3 -0.3,0.9 0,1.2 l 0.8,0.9 z" /><path
         style="fill:#000000"
         id="path160"
         d="m 78.3,49.1 0.6,-0.6 1,1 c 0.3,0.3 0.7,0.3 1,0 0.3,-0.3 0.3,-0.7 0,-1 l -1,-1 0.5,-0.5 -1.2,-2.6 -3.5,3.6 2.6,1.1 z M 80,48.7 c 0.2,-0.2 0.5,-0.2 0.7,0 0.2,0.2 0.2,0.5 0,0.7 -0.2,0.2 -0.5,0.2 -0.7,0 -0.1,-0.2 -0.2,-0.5 0,-0.7 z" /></g></g><g
     transform="translate(0,900)"
     style="display:none"
     id="g162"
     display="none"><rect
       style="display:inline;fill:#000000"
       id="rect164"
       height="3.5"
       width="14.1"
       display="inline"
       y="32"
       x="36" /><rect
       style="display:inline;fill:#000000"
       id="rect166"
       height="3.5"
       width="16.9"
       display="inline"
       y="37.099998"
       x="36" /><rect
       style="display:inline;fill:#000000"
       id="rect168"
       height="3.5"
       width="14.1"
       display="inline"
       y="61.799999"
       x="36" /><rect
       style="display:inline;fill:#000000"
       id="rect170"
       height="3.5"
       width="16.9"
       display="inline"
       y="66.900002"
       x="36" /><g
       style="display:inline"
       id="g172"
       display="inline"><path
         style="fill:#000000"
         id="path174"
         d="M 59.5,10 41,10 c -7.2,0 -13.1,5.9 -13.1,13.1 l 0,54.5 c 0,7.2 5.9,13.1 13.1,13.1 l 18.5,0 c 7.2,0 13.1,-5.9 13.1,-13.1 l 0,-54.5 C 72.6,15.9 66.7,10 59.5,10 Z m -9.6,78.1 c -1.5,0 -2.7,-1.2 -2.7,-2.7 0,-1.5 1.2,-2.7 2.7,-2.7 1.5,0 2.7,1.2 2.7,2.7 0,1.5 -1.2,2.7 -2.7,2.7 z m 16.2,-8.7 -32.2,0 0,-60.3 32.2,0 0,60.3 z" /><rect
         style="fill:#000000"
         id="rect176"
         height="3.5"
         width="27.799999"
         y="22.4"
         x="36" /><rect
         style="fill:#000000"
         id="rect178"
         height="3.5"
         width="20.799999"
         y="27.299999"
         x="36" /><rect
         style="fill:#000000"
         id="rect180"
         height="3.5"
         width="26.200001"
         y="42"
         x="36" /><rect
         style="fill:#000000"
         id="rect182"
         height="3.5"
         width="24.200001"
         y="46.799999"
         x="36" /><rect
         style="fill:#000000"
         id="rect184"
         height="3.5"
         width="27.799999"
         y="52.099998"
         x="36" /><rect
         style="fill:#000000"
         id="rect186"
         height="3.5"
         width="20.799999"
         y="57"
         x="36" /><rect
         style="fill:#000000"
         id="rect188"
         height="3.5"
         width="26.200001"
         y="71.800003"
         x="36" /></g></g><g
     transform="translate(0,900)"
     style="display:none"
     id="g190"
     display="none"><path
       style="display:inline;fill:#000000"
       id="path192"
       d="m 37,33.4 c 3.8,-0.3 7.6,1.5 11.3,5.4 l 0,0 c 4.6,4.7 9.4,7 14.4,6.6 7.9,-0.6 13,-7.7 13.2,-8 l -3.1,-2.2 c 0,0.1 -4.3,5.9 -10.5,6.4 -3.8,0.3 -7.6,-1.5 -11.3,-5.4 l 0,0 c -4.6,-4.7 -9.4,-6.9 -14.4,-6.6 -7.9,0.6 -13,7.7 -13.2,8 l 3.1,2.2 c 0.1,-0.1 4.3,-6 10.5,-6.4 z"
       display="inline" /><path
       style="display:inline;fill:#000000"
       id="path194"
       d="m 37,43 c 3.8,-0.3 7.6,1.5 11.3,5.4 l 0,0 c 4.6,4.7 9.4,7 14.4,6.6 7.9,-0.6 13,-7.7 13.2,-8 l -3.1,-2.2 c 0,0.1 -4.3,5.9 -10.5,6.4 -3.8,0.3 -7.6,-1.5 -11.3,-5.4 l 0,0 c -4.6,-4.7 -9.4,-6.9 -14.4,-6.6 -7.9,0.6 -13,7.7 -13.2,8 l 3.1,2.2 C 26.6,49.3 30.8,43.5 37,43 Z"
       display="inline" /><path
       style="display:inline;fill:#000000"
       id="path196"
       d="m 37,53.5 c 3.8,-0.3 7.6,1.6 11.3,5.4 l 0,0 c 4.6,4.7 9.4,7 14.4,6.6 7.9,-0.6 13,-7.7 13.2,-8 l -3.1,-2.2 c 0,0.1 -4.3,5.9 -10.5,6.4 C 58.5,62 54.7,60.2 51,56.3 l 0,0 c -4.6,-4.7 -9.4,-7 -14.4,-6.6 -7.9,0.6 -13,7.7 -13.2,8 l 3.1,2.2 C 26.6,59.8 30.8,54 37,53.5 Z"
       display="inline" /></g><g
     transform="translate(0,900)"
     style="display:none"
     id="g198"
     display="none"><path
       style="display:inline;fill:#000000"
       id="path200"
       d="m 49,30.6 c 2.6,0 5.2,0.6 7.4,1.6 l 0,-27.3 -14.9,0 0,27.3 c 2.3,-1 4.8,-1.6 7.5,-1.6 z"
       display="inline" /><path
       style="display:inline;fill:#000000"
       id="path202"
       d="m 49,69.3 c -2.6,0 -5.2,-0.6 -7.4,-1.6 l 0,27.3 14.9,0 0,-27.3 c -2.3,1 -4.8,1.6 -7.5,1.6 z"
       display="inline" /><path
       style="display:inline;fill:#000000"
       id="path204"
       d="m 66.8,47.1 c 0,0 0,0 0,0 -1.3,-8.6 -8.7,-15.2 -17.7,-15.2 -9.9,0 -17.9,8 -17.9,17.9 0,9.9 8,17.9 17.9,17.9 8.9,0 16.2,-6.5 17.6,-15 0,0 0,0 0,0 1.1,0 2,-0.9 2,-2 l 0,-1.7 c 0,-1 -0.8,-1.9 -1.9,-1.9 z M 49.1,65 C 40.8,65 34,58.2 34,49.9 c 0,-8.3 6.8,-15.1 15.1,-15.1 8.3,0 15.1,6.8 15.1,15.1 0,8.3 -6.8,15.1 -15.1,15.1 z"
       display="inline" /><g
       style="display:inline"
       id="g206"
       display="inline"><polygon
         style="fill:#000000"
         id="polygon208"
         points="50.5,57.8 50.3,57.5 48.7,59 47.8,58.2 47.5,58.5 48.7,59.6 48.7,59.6 48.7,59.6 " /><path
         style="fill:#000000"
         id="path210"
         d="m 49,64 c 7.7,0 14,-6.3 14,-14 0,-7.7 -6.3,-14 -14,-14 -7.7,0 -14,6.3 -14,14 0,7.7 6.2,14 14,14 z m 0,-2.8 c -1.5,0 -2.7,-1.2 -2.7,-2.7 0,-1.5 1.2,-2.7 2.7,-2.7 1.5,0 2.7,1.2 2.7,2.7 0,1.5 -1.2,2.7 -2.7,2.7 z m -9,-8 0,-1.8 11.1,0 0,1.8 -11.1,0 z m -0.1,-11.1 12.4,0 0,1.8 -12.4,0 0,-1.8 z m 0,3.2 12.4,0 0,1.8 -12.4,0 0,-1.8 z m 0,3.1 18.4,0 0,1.8 -18.4,0 0,-1.8 z" /></g></g><g
     transform="translate(0,900)"
     style="display:none"
     id="g212"
     display="none"><path
       style="display:inline;fill:#000000"
       id="path214"
       d="M 84.1,39 51.4,39 C 50.4,38.1 48.3,36 48.1,33.2 48,31 49,28.7 51.4,26.5 l 0,0 c 2.8,-2.7 4.1,-5.6 3.9,-8.6 -0.4,-4.7 -4.6,-7.8 -4.8,-7.9 l -1.3,1.8 c 0,0 3.5,2.6 3.8,6.2 0.2,2.2 -0.9,4.5 -3.2,6.8 l 0,0 c -2.8,2.7 -4.1,5.6 -3.9,8.6 0.2,2.3 1.3,4.2 2.4,5.6 L 15.9,39 C 9.9,39 5,43.9 5,49.9 L 5,70.1 C 5,76.1 9.9,81 15.9,81 l 68.3,0 c 6,0 10.9,-4.9 10.9,-10.9 l 0,-20.2 C 95,43.9 90.1,39 84.1,39 Z m 4.6,10.1 c 0.8,0 1.5,1.3 1.5,3 0,0.2 0,0.4 0,0.6 l 0,5.9 c 0,1 -1.3,1.9 -3,1.9 -1.7,0 -3,-0.8 -3,-1.9 l 0,-3.5 -0.7,0 c -0.8,0 -1.5,-1.3 -1.5,-3 0,-1.6 0.7,-3 1.5,-3 l 5.2,0 z m -11.1,-5.6 4.7,0 c 0.7,0 1.2,0.6 1.2,1.2 0,0.7 -0.6,1.2 -1.2,1.2 l -4.7,0 c -0.7,0 -1.2,-0.6 -1.2,-1.2 0,-0.6 0.5,-1.2 1.2,-1.2 z m -7.8,0 4.7,0 c 0.7,0 1.2,0.6 1.2,1.2 0,0.7 -0.6,1.2 -1.2,1.2 l -4.7,0 c -0.7,0 -1.2,-0.6 -1.2,-1.2 -0.1,-0.6 0.5,-1.2 1.2,-1.2 z m -2.7,12.5 1.6,0 c 1.4,0 2.5,1.1 2.5,2.5 0,1.4 -1.1,2.5 -2.5,2.5 l -1.6,0 c -1.4,0 -2.5,-1.1 -2.5,-2.5 0,-1.4 1.1,-2.5 2.5,-2.5 z m -2.7,-4.5 c 0,-1.4 1.1,-2.5 2.5,-2.5 l 1.6,0 c 1.4,0 2.5,1.1 2.5,2.5 0,1.4 -1.1,2.5 -2.5,2.5 l -1.6,0 c -1.4,0 -2.5,-1.1 -2.5,-2.5 z m 2.8,11.5 1.6,0 c 1.4,0 2.5,1.1 2.5,2.5 0,1.4 -1.1,2.5 -2.5,2.5 l -1.6,0 c -1.4,0 -2.5,-1.1 -2.5,-2.5 0,-1.4 1.1,-2.5 2.5,-2.5 z m -5.6,-19.5 4.7,0 c 0.7,0 1.2,0.6 1.2,1.2 0,0.7 -0.6,1.2 -1.2,1.2 l -4.7,0 c -0.7,0 -1.2,-0.6 -1.2,-1.2 0,-0.6 0.5,-1.2 1.2,-1.2 z M 59.4,56 61,56 c 1.4,0 2.5,1.1 2.5,2.5 0,1.4 -1.1,2.5 -2.5,2.5 l -1.6,0 C 58,61 56.9,59.9 56.9,58.5 56.9,57.1 58,56 59.4,56 Z m -2.7,-4.5 c 0,-1.4 1.1,-2.5 2.5,-2.5 l 1.6,0 c 1.4,0 2.5,1.1 2.5,2.5 0,1.4 -1.1,2.5 -2.5,2.5 l -1.6,0 c -1.4,0 -2.5,-1.1 -2.5,-2.5 z m -3.3,-8 4.7,0 c 0.7,0 1.2,0.6 1.2,1.2 0,0.7 -0.6,1.2 -1.2,1.2 l -4.7,0 c -0.7,0 -1.2,-0.6 -1.2,-1.2 -0.1,-0.6 0.5,-1.2 1.2,-1.2 z M 52,56 l 1.6,0 c 1.4,0 2.5,1.1 2.5,2.5 0,1.4 -1.1,2.5 -2.5,2.5 L 52,61 c -1.4,0 -2.5,-1.1 -2.5,-2.5 0,-1.4 1.1,-2.5 2.5,-2.5 z m -2.7,-4.5 c 0,-1.4 1.1,-2.5 2.5,-2.5 l 1.6,0 c 1.4,0 2.5,1.1 2.5,2.5 0,1.4 -1.1,2.5 -2.5,2.5 l -1.6,0 c -1.4,0 -2.5,-1.1 -2.5,-2.5 z m 2.8,11.5 1.6,0 c 1.4,0 2.5,1.1 2.5,2.5 0,1.4 -1.1,2.5 -2.5,2.5 l -1.6,0 c -1.4,0 -2.5,-1.1 -2.5,-2.5 0,-1.4 1.1,-2.5 2.5,-2.5 z m -6.9,-19.5 4.7,0 c 0.7,0 1.2,0.6 1.2,1.2 0,0.7 -0.6,1.2 -1.2,1.2 l -4.7,0 c -0.7,0 -1.2,-0.6 -1.2,-1.2 0,-0.6 0.5,-1.2 1.2,-1.2 z m -0.9,12.5 1.6,0 c 1.4,0 2.5,1.1 2.5,2.5 0,1.4 -1.1,2.5 -2.5,2.5 l -1.6,0 c -1.4,0 -2.5,-1.1 -2.5,-2.5 0,-1.4 1.1,-2.5 2.5,-2.5 z M 41.5,51.5 C 41.5,50.1 42.6,49 44,49 l 1.6,0 c 1.4,0 2.5,1.1 2.5,2.5 0,1.4 -1.1,2.5 -2.5,2.5 L 44,54 c -1.3,0 -2.5,-1.1 -2.5,-2.5 z m 2.8,11.5 1.6,0 c 1.4,0 2.5,1.1 2.5,2.5 0,1.4 -1.1,2.5 -2.5,2.5 l -1.6,0 c -1.4,0 -2.5,-1.1 -2.5,-2.5 0,-1.4 1.1,-2.5 2.5,-2.5 z M 37,43.5 l 4.7,0 c 0.7,0 1.2,0.6 1.2,1.2 0,0.7 -0.6,1.2 -1.2,1.2 l -4.7,0 c -0.7,0 -1.2,-0.6 -1.2,-1.2 -0.1,-0.6 0.5,-1.2 1.2,-1.2 z m -0.9,12.5 1.6,0 c 1.4,0 2.5,1.1 2.5,2.5 0,1.4 -1.1,2.5 -2.5,2.5 l -1.6,0 c -1.4,0 -2.5,-1.1 -2.5,-2.5 0,-1.4 1.1,-2.5 2.5,-2.5 z m -2.7,-4.5 c 0,-1.4 1.1,-2.5 2.5,-2.5 l 1.6,0 c 1.4,0 2.5,1.1 2.5,2.5 0,1.4 -1.1,2.5 -2.5,2.5 l -1.6,0 c -1.4,0 -2.5,-1.1 -2.5,-2.5 z m 2.8,11.5 1.6,0 c 1.4,0 2.5,1.1 2.5,2.5 0,1.4 -1.1,2.5 -2.5,2.5 l -1.6,0 c -1.4,0 -2.5,-1.1 -2.5,-2.5 0,-1.4 1.1,-2.5 2.5,-2.5 z m -7.4,-19.5 4.7,0 c 0.7,0 1.2,0.6 1.2,1.2 0,0.7 -0.6,1.2 -1.2,1.2 l -4.7,0 c -0.7,0 -1.2,-0.6 -1.2,-1.2 -0.1,-0.6 0.5,-1.2 1.2,-1.2 z m -8.2,0 4.7,0 c 0.7,0 1.2,0.6 1.2,1.2 0,0.7 -0.6,1.2 -1.2,1.2 l -4.7,0 c -0.7,0 -1.2,-0.6 -1.2,-1.2 -0.1,-0.6 0.5,-1.2 1.2,-1.2 z m 0.5,19.5 1.6,0 c 1.4,0 2.5,1.1 2.5,2.5 0,1.4 -1.1,2.5 -2.5,2.5 l -1.6,0 c -1.4,0 -2.5,-1.1 -2.5,-2.5 0,-1.4 1.1,-2.5 2.5,-2.5 z M 18.5,58.5 C 18.5,57.1 19.6,56 21,56 l 1.6,0 c 1.4,0 2.5,1.1 2.5,2.5 0,1.4 -1.1,2.5 -2.5,2.5 L 21,61 c -1.4,0 -2.5,-1.2 -2.5,-2.5 z m 2.3,-9.5 1.6,0 c 1.4,0 2.5,1.1 2.5,2.5 0,1.4 -1.1,2.5 -2.5,2.5 l -1.6,0 c -1.4,0 -2.5,-1.1 -2.5,-2.5 0,-1.3 1.1,-2.5 2.5,-2.5 z m -8.4,-5.5 4.7,0 c 0.7,0 1.2,0.6 1.2,1.2 0,0.7 -0.6,1.2 -1.2,1.2 l -4.7,0 c -0.7,0 -1.2,-0.6 -1.2,-1.2 0,-0.6 0.5,-1.2 1.2,-1.2 z m 0.6,5.5 1.6,0 c 1.4,0 2.5,1.1 2.5,2.5 0,1.4 -1.1,2.5 -2.5,2.5 L 13,54 c -1.4,0 -2.5,-1.1 -2.5,-2.5 0,-1.3 1.2,-2.5 2.5,-2.5 z m 4.4,9.5 c 0,1.4 -1.1,2.5 -2.5,2.5 l -1.6,0 c -1.4,0 -2.5,-1.1 -2.5,-2.5 0,-1.4 1.1,-2.5 2.5,-2.5 l 1.6,0 c 1.4,0 2.5,1.1 2.5,2.5 z m -2.9,18.8 -1.5,0 c -1.3,0 -2.4,-1.3 -2.4,-2.9 0,-1.6 1.1,-2.9 2.4,-2.9 l 1.5,0 c 1.3,0 2.4,1.3 2.4,2.9 0,1.6 -1.1,2.9 -2.4,2.9 z m 0.4,-9.3 -1.6,0 c -1.4,0 -2.5,-1.1 -2.5,-2.5 0,-1.4 1.1,-2.5 2.5,-2.5 l 1.6,0 c 1.4,0 2.5,1.1 2.5,2.5 0,1.4 -1.1,2.5 -2.5,2.5 z m 7.6,9.3 -1.8,0 c -1.6,0 -2.9,-1.3 -2.9,-2.9 0,-1.6 1.3,-2.9 2.9,-2.9 l 1.8,0 c 1.6,0 2.9,1.3 2.9,2.9 0,1.6 -1.3,2.9 -2.9,2.9 z m 5.7,-28.3 1.6,0 c 1.4,0 2.5,1.1 2.5,2.5 0,1.4 -1.1,2.5 -2.5,2.5 l -1.6,0 c -1.4,0 -2.5,-1.1 -2.5,-2.5 0,-1.3 1.1,-2.5 2.5,-2.5 z m 0.2,7 1.6,0 c 1.4,0 2.5,1.1 2.5,2.5 0,1.4 -1.1,2.5 -2.5,2.5 l -1.6,0 C 27,61 25.9,59.9 25.9,58.5 25.9,57.1 27,56 28.4,56 Z m -2.5,9.5 C 25.9,64.1 27,63 28.4,63 l 1.6,0 c 1.4,0 2.5,1.1 2.5,2.5 0,1.4 -1.1,2.5 -2.5,2.5 l -1.6,0 c -1.3,0 -2.5,-1.1 -2.5,-2.5 z m 34.6,11.7 -31,0 c -1.2,0 -2.2,-1.3 -2.2,-2.8 0,-1.5 1,-2.8 2.2,-2.8 l 31.1,0 c 1.2,0 2.2,1.3 2.2,2.8 0,1.5 -1,2.8 -2.3,2.8 z M 61.1,68 59.5,68 C 58.1,68 57,66.9 57,65.5 57,64.1 58.1,63 59.5,63 l 1.6,0 c 1.4,0 2.5,1.1 2.5,2.5 0,1.4 -1.2,2.5 -2.5,2.5 z m 7.6,9.3 -1.7,0 c -1.6,0 -2.9,-1.3 -2.9,-2.9 0,-1.6 1.3,-2.9 2.9,-2.9 l 1.8,0 c 1.6,0 2.9,1.3 2.9,2.9 0,1.6 -1.4,2.9 -3,2.9 z m 6,-28.3 1.6,0 c 1.4,0 2.5,1.1 2.5,2.5 0,1.4 -1.1,2.5 -2.5,2.5 l -1.6,0 c -1.4,0 -2.5,-1.1 -2.5,-2.5 0,-1.3 1.1,-2.5 2.5,-2.5 z m 0.2,7 1.6,0 c 1.4,0 2.5,1.1 2.5,2.5 0,1.4 -1.1,2.5 -2.5,2.5 l -1.6,0 c -1.4,0 -2.5,-1.1 -2.5,-2.5 0,-1.4 1.1,-2.5 2.5,-2.5 z m 2,20.9 -2.2,0 c -0.6,0 -1.1,-0.5 -1.1,-1.1 0,-0.6 0.5,-1.1 1.1,-1.1 l 2.2,0 c 0.6,0 1.1,0.5 1.1,1.1 0,0.6 -0.5,1.1 -1.1,1.1 z M 76.6,68 75,68 c -1.4,0 -2.5,-1.1 -2.5,-2.5 0,-1.4 1.1,-2.5 2.5,-2.5 l 1.6,0 c 1.4,0 2.5,1.1 2.5,2.5 0,1.4 -1.2,2.5 -2.5,2.5 z m 5.8,8.9 -2.2,0 c -0.6,0 -1.1,-0.5 -1.1,-1.1 0,-0.6 0.5,-1.1 1.1,-1.1 l 2.2,0 c 0.6,0 1.1,0.5 1.1,1.1 0,0.6 -0.5,1.1 -1.1,1.1 z m 0,-2.8 -2.2,0 c -0.6,0 -1.1,-0.5 -1.1,-1.1 0,-0.6 0.5,-1.1 1.1,-1.1 l 2.2,0 c 0.6,0 1.1,0.5 1.1,1.1 0,0.6 -0.5,1.1 -1.1,1.1 z m 5.4,2.8 -2.2,0 c -0.6,0 -1.1,-0.5 -1.1,-1.1 0,-0.6 0.5,-1.1 1.1,-1.1 l 2.2,0 c 0.6,0 1.1,0.5 1.1,1.1 0,0.6 -0.5,1.1 -1.1,1.1 z M 90,68 82.7,68 c -1.1,0 -2,-1.1 -2,-2.6 0,-1.5 0.9,-2.6 2,-2.6 l 7.3,0 c 1.1,0 2,1.1 2,2.6 0,1.5 -0.9,2.6 -2,2.6 z"
       display="inline" /></g><g
     transform="translate(0,900)"
     style="display:none"
     id="g216"
     display="none"><path
       style="display:inline;fill:#000000"
       id="path218"
       d="m 73.9,5 -59.2,0 0,90 69.8,0 0,-79.3 L 73.9,5 Z M 21,20.8 l 49.7,0 0,2.8 -49.7,0 0,-2.8 z m 0,5.9 49.7,0 0,2.8 -49.7,0 0,-2.8 z m 0,17.3 44.9,0 0,2.8 -44.9,0 0,-2.8 z m 0,5.8 44.9,0 0,2.8 -44.9,0 0,-2.8 z m 0,5.9 39,0 0,2.8 -39,0 0,-2.8 z m 0,5.8 39,0 0,2.8 -39,0 0,-2.8 z M 69.1,76 21,76 l 0,-2.8 48.1,0 0,2.8 z m 0,-5.8 -48.1,0 0,-2.8 48.1,0 0,2.8 z m 9.2,-29.4 -57.3,0 0,-2.8 57.3,0 0,2.8 z m 0,-5.8 -57.3,0 0,-2.8 57.3,0 0,2.8 z"
       display="inline" /></g><g
     transform="translate(0,900)"
     style="display:none"
     id="g220"
     display="none"><path
       style="display:inline;fill:#000000"
       id="path222"
       d="m 74.6,5 -59.2,0 0,90 69.8,0 0,-79.3 L 74.6,5 Z m 1.5,21.9 0,1.1 -16.5,0 0,-1.1 16.5,0 z m -16.5,5.5 0,-1.1 16.5,0 0,1.1 -16.5,0 z m 16.5,1 0,1.1 -16.5,0 0,-1.1 16.5,0 z m -16.5,-3.3 0,-1.1 16.5,0 0,1.1 -16.5,0 z M 23,14.2 l 46.5,0 0,2 -46.5,0 0,-2 z m 0,4.7 46.5,0 0,2 -46.5,0 0,-2 z m 18.3,13.5 0,-1.1 16.5,0 0,1.1 -16.5,0 z m 16.6,1 0,1.1 -16.6,0 0,-1.1 16.6,0 z m -16.6,-3.3 0,-1.1 16.5,0 0,1.1 -16.5,0 z m 0,-2.1 0,-1.1 16.5,0 0,1.1 -16.5,0 z M 23,26.9 l 16.5,0 0,1.1 -16.5,0 0,-1.1 z m 0,2.1 16.5,0 0,1.1 -16.5,0 0,-1.1 z m 0,2.3 16.5,0 0,1.1 -16.5,0 0,-1.1 z m 0,2.1 16.5,0 0,1.1 -16.5,0 0,-1.1 z m -0.2,7.5 1,0 0,19.3 3.2,0 0,-9.7 5.1,0 0,9.7 1.6,0 0,-12.3 5.1,0 0,12.4 1.5,0 0,-17.9 5.1,0 0,17.9 1.6,0 0,-17.9 5.1,0 0,17.9 1.5,0 0,-12.4 5.1,0 0,12.4 1.6,0 0,-9.7 5.1,0 0,9.7 1.5,0 0,-7.4 5.1,0 0,7.4 6.3,0 0,1 -54.5,0 -1,0 0,0 0,-20.4 z m 6.9,44.9 c -4.2,0 -7.6,-3.4 -7.6,-7.6 0,-4.2 3.4,-7.6 7.6,-7.6 0,0 0,0 0,0 l 0,7.6 7.5,0 c 0.1,4.3 -3.3,7.6 -7.5,7.6 z m 49.5,-5.7 -2,-3.4 -0.6,7.3 -3.9,-5 -5.5,-2 c -0.2,0.2 -0.4,0.3 -0.7,0.3 0,0 -0.1,0 -0.1,0 L 62,81.7 59.9,76.1 c -0.1,0 -0.3,0 -0.4,-0.1 l -5,4.4 -5.6,-4.3 c -0.1,0.1 -0.3,0.2 -0.5,0.2 -0.2,0 -0.3,-0.1 -0.4,-0.1 l -5.7,6.4 -0.4,-0.3 5.7,-6.4 c -0.1,-0.1 -0.1,-0.3 -0.1,-0.5 0,-0.5 0.4,-0.9 0.9,-0.9 0.5,0 0.9,0.4 0.9,0.9 0,0.1 0,0.3 -0.1,0.4 l 5.2,4 4.6,-4.1 c 0,-0.1 0,-0.3 0,-0.5 0,-0.5 0.4,-0.9 0.9,-0.9 0.5,0 0.9,0.4 0.9,0.9 0,0.3 -0.2,0.6 -0.5,0.8 l 1.8,4.8 3.7,-3.8 c -0.2,-0.2 -0.3,-0.4 -0.3,-0.7 0,-0.5 0.4,-0.9 0.9,-0.9 0.5,0 0.9,0.4 0.9,0.9 0,0.1 0,0.1 0,0.2 l 5.6,2 3.1,4.2 0.5,-6.2 c -0.4,-0.1 -0.6,-0.5 -0.6,-0.9 0,-0.5 0.4,-0.9 0.9,-0.9 0.5,0 0.9,0.4 0.9,0.9 0,0.3 -0.1,0.5 -0.4,0.7 l 2,3.5 -0.1,0.3 z"
       display="inline" /></g><g
     transform="translate(0,900)"
     style="display:none"
     id="g224"
     display="none"><path
       style="display:inline;fill:#000000"
       id="path226"
       d="m 83.6,48.4 c 0.8,-2.3 1.3,-4.8 1.3,-7.4 0,-12.3 -10,-22.3 -22.3,-22.3 -7.8,0 -14.6,4 -18.6,10 -2.8,-1.9 -6.2,-2.9 -9.9,-2.9 -10,0 -18.1,8.1 -18.1,18.1 0,1.5 0.2,3 0.6,4.5 C 9.9,49 4.8,54.5 4.8,61.1 c 0,7.1 5.7,12.8 12.8,12.8 l 64.5,0 c 7.1,0 12.8,-5.7 12.8,-12.8 C 95,54.5 90,49.1 83.6,48.4 Z m -40.9,-3.5 7,7 7,-7 1.9,1.9 -7,7 0,0 -1.9,1.9 0,0 0,0 -1.9,-1.9 0,0 -7,-7 1.9,-1.9 z m 7.1,16.5 0,0 0,0 -8.9,-8.9 1.9,-1.9 7,7 7,-7 1.9,1.9 -8.9,8.9 z"
       display="inline" /></g><g
     transform="translate(0,900)"
     style="display:none"
     id="g228"
     display="none"><polygon
       style="display:inline;fill:#000000"
       id="polygon230"
       points="4.6,47.5 94.8,5.2 52.4,95.3 42.9,57 "
       display="inline" /></g><g
     transform="translate(0,900)"
     style="display:none"
     id="g232"
     display="none"><path
       style="display:inline;fill:#000000"
       id="path234"
       d="m 5.2,23.8 0,15.9 90,0 0,-15.9 -90,0 z m 51.6,11.8 -48.4,0 0,-8.1 48.4,0 0,8.1 z M 85.6,36 c -2.3,0 -4.2,-1.9 -4.2,-4.2 0,-2.3 1.9,-4.2 4.2,-4.2 2.3,0 4.2,1.9 4.2,4.2 0,2.3 -1.9,4.2 -4.2,4.2 z"
       display="inline" /><path
       style="display:inline;fill:#000000"
       id="path236"
       d="m 5.2,43.6 0,15.9 90,0 0,-15.9 -90,0 z m 51.6,11.8 -48.4,0 0,-8.1 48.4,0 0,8.1 z m 28.8,0.4 c -2.3,0 -4.2,-1.9 -4.2,-4.2 0,-2.3 1.9,-4.2 4.2,-4.2 2.3,0 4.2,1.9 4.2,4.2 0,2.3 -1.9,4.2 -4.2,4.2 z"
       display="inline" /><path
       style="display:inline;fill:#000000"
       id="path238"
       d="m 5.2,63.1 0,15.9 90,0 0,-15.9 -90,0 z m 51.6,11.8 -48.4,0 0,-8.1 48.4,0 0,8.1 z m 28.8,0.3 c -2.3,0 -4.2,-1.9 -4.2,-4.2 0,-2.3 1.9,-4.2 4.2,-4.2 2.3,0 4.2,1.9 4.2,4.2 0,2.3 -1.9,4.2 -4.2,4.2 z"
       display="inline" /></g><g
     transform="translate(0,900)"
     style="display:none"
     id="g240"
     display="none"><polygon
       style="display:inline;fill:#000000"
       id="polygon242"
       points="32.3,26.4 67.6,26.4 65.6,36.2 34.3,36.2 "
       display="inline" /><polygon
       style="display:inline;fill:#000000"
       id="polygon244"
       points="63.6,42.7 36.3,42.7 34.3,36.2 65.6,36.2 "
       display="inline" /><polygon
       style="display:inline;fill:#000000"
       id="polygon246"
       points="39,42.1 61,42.1 59,50.1 41,50.1 "
       display="inline" /><path
       style="display:inline;fill:#000000"
       id="path248"
       d="m 43.9,28.9 c 0,1 -0.8,1.9 -1.9,1.9 l 0,0 c -1,0 -1.9,-0.8 -1.9,-1.9 l 0,-12.7 c 0,-1 0.8,-1.9 1.9,-1.9 l 0,0 c 1,0 1.9,0.8 1.9,1.9 l 0,12.7 z"
       display="inline" /><path
       style="display:inline;fill:#000000"
       id="path250"
       d="m 59.1,28.9 c 0,1 -0.8,1.9 -1.9,1.9 l 0,0 c -1,0 -1.9,-0.8 -1.9,-1.9 l 0,-12.7 c 0,-1 0.8,-1.9 1.9,-1.9 l 0,0 c 1,0 1.9,0.8 1.9,1.9 l 0,12.7 z"
       display="inline" /><path
       style="display:inline;fill:#000000"
       id="path252"
       d="m 43.7,76.5 c -0.2,-3.3 1.3,-6.6 4.7,-9.8 l 0,0 c 4.1,-4 6,-8.2 5.7,-12.5 -0.5,-6.9 -6.7,-11.3 -6.9,-11.5 l -1.9,2.7 c 0.1,0 5.2,3.7 5.5,9.1 0.2,3.3 -1.3,6.6 -4.7,9.8 l 0,0 c -4.1,4 -6,8.2 -5.7,12.5 0.5,6.9 6.7,11.3 6.9,11.5 l 1.9,-2.7 c 0,-0.1 -5.1,-3.8 -5.5,-9.1 z"
       display="inline" /></g><g
     transform="translate(0,900)"
     style="display:none"
     id="g254"
     display="none"><g
       style="display:inline"
       id="g256"
       display="inline"><path
         style="fill:#000000"
         id="path258"
         d="m 70.9,83 c 0,6.7 -6.4,12.2 -14.3,12.2 l -13,0 C 35.7,95.2 29.3,89.8 29.3,83 l 0,0 c 0,-6.7 6.4,-12.2 14.3,-12.2 l 13,0 c 7.9,0 14.3,5.5 14.3,12.2 l 0,0 z" /><g
         id="g260"><path
           style="fill:#000000"
           id="path262"
           d="m 67.1,72.1 c 0,9.4 -7.6,17.1 -17.1,17.1 l 0,0 c -9.4,0 -17.1,-7.6 -17.1,-17.1 l 0,-49.4 C 33,13.2 40.6,5.6 50,5.6 l 0,0 c 9.4,0 17.1,7.6 17.1,17.1 l 0,49.4 z" /><path
           style="fill:#000000"
           id="path264"
           d="m 50,89.8 c -9.7,0 -17.7,-7.9 -17.7,-17.7 l 0,-49.4 C 32.4,12.9 40.3,5 50,5 c 9.7,0 17.7,7.9 17.7,17.7 l 0,49.5 c 0,9.7 -7.9,17.6 -17.7,17.6 z M 50,6.2 c -9.1,0 -16.5,7.4 -16.5,16.5 l 0,49.5 c 0,9.1 7.4,16.5 16.5,16.5 9.1,0 16.5,-7.4 16.5,-16.5 l 0,-49.5 C 66.5,13.6 59.1,6.2 50,6.2 Z" /></g><path
         style="fill:#000000"
         id="path266"
         d="m 58.1,17.9 c 0,1 -0.8,1.9 -1.9,1.9 l 0,0 c -1,0 -1.9,-0.8 -1.9,-1.9 l 0,0 c 0,-1 0.8,-1.9 1.9,-1.9 l 0,0 c 1.1,0 1.9,0.8 1.9,1.9 l 0,0 z" /><path
         style="fill:#000000"
         id="path268"
         d="m 58.1,23.7 c 0,1 -0.8,1.9 -1.9,1.9 l 0,0 c -1,0 -1.9,-0.8 -1.9,-1.9 l 0,0 c 0,-1 0.8,-1.9 1.9,-1.9 l 0,0 c 1.1,0 1.9,0.9 1.9,1.9 l 0,0 z" /><path
         style="fill:#000000"
         id="path270"
         d="m 58.1,29.5 c 0,1 -0.8,1.9 -1.9,1.9 l 0,0 c -1,0 -1.9,-0.8 -1.9,-1.9 l 0,0 c 0,-1 0.8,-1.9 1.9,-1.9 l 0,0 c 1.1,0 1.9,0.8 1.9,1.9 l 0,0 z" /><path
         style="fill:#000000"
         id="path272"
         d="m 44.4,43.7 c 0,0.6 -0.4,1 -1,1 l 0,0 c -0.6,0 -1,-0.4 -1,-1 l 0,-21.3 c 0,-0.6 0.4,-1 1,-1 l 0,0 c 0.6,0 1,0.4 1,1 l 0,21.3 z" /><path
         style="fill:#000000"
         id="path274"
         d="m 55.7,76.3 c 0,3.2 -2.6,5.8 -5.8,5.8 l 0,0 c -3.2,0 -5.8,-2.6 -5.8,-5.8 l 0,0 c 0,-3.2 2.6,-5.8 5.8,-5.8 l 0,0 c 3.2,0 5.8,2.6 5.8,5.8 l 0,0 z" /><path
         style="fill:#000000"
         id="path276"
         d="m 44.5,19 c 0,0.6 -0.5,1.1 -1.1,1.1 l 0,0 c -0.6,0 -1.1,-0.5 -1.1,-1.1 l 0,-1.4 c 0,-0.6 0.5,-1.1 1.1,-1.1 l 0,0 c 0.6,0 1.1,0.5 1.1,1.1 l 0,1.4 z" /><circle
         id="circle278"
         r="3.5"
         cy="76.300003"
         cx="49.900002" /><path
         style="fill:#000000"
         id="path280"
         d="m 50.5,75.2 c 0,0.3 -0.3,0.6 -0.6,0.6 l 0,0 c -0.3,0 -0.6,-0.3 -0.6,-0.6 l 0,-2.8 c 0,-0.3 0.3,-0.6 0.6,-0.6 l 0,0 c 0.3,0 0.6,0.3 0.6,0.6 l 0,2.8 z" /></g></g></svg>