<svg xmlns="http://www.w3.org/2000/svg" xmlns:xlink="http://www.w3.org/1999/xlink" version="1.1" x="0px" y="0px" viewBox="0 0 100 100" enable-background="new 0 0 100 100" xml:space="preserve"><path d="M51,69h17v19H51V69z M87,69H70v19h17V69z M51,67h11v-1H51V67z M82,66H70v1h12V66z M24,66H13v1h11V66z M90,49H10V18h80V49z   M14,33.5l1.6-1.6l-0.5-0.5L13,33.5l2.1,2.1l0.5-0.5L14,33.5z M87,33.5l-2.1-2.1l-0.5,0.5l1.6,1.6l-1.6,1.6l0.5,0.5L87,33.5z M50,51  c-0.6,0-1,0.4-1,1c0,0.6,0.4,1,1,1s1-0.4,1-1C51,51.4,50.6,51,50,51z M54,51c-0.6,0-1,0.4-1,1c0,0.6,0.4,1,1,1s1-0.4,1-1  C55,51.4,54.6,51,54,51z M95,5v90H5V5H95z M85,11h5v-1h-5V11z M78,11h5v-1h-5V11z M71,11h5v-1h-5V11z M10,9h5V8h-5V9z M10,11h5v-1  h-5V11z M10,13h5v-1h-5V13z M91,56.5H9V91h82V56.5z M91,16H9v39.5h82V16z M49,69H32v19h17V69z M42,66H32v1h10V66z M60,60H40v2h20V60  z M30,69H13v19h17V69z M47,52c0,0.6-0.4,1-1,1s-1-0.4-1-1c0-0.6,0.4-1,1-1S47,51.4,47,52z M46.5,52c0-0.3-0.2-0.5-0.5-0.5  s-0.5,0.2-0.5,0.5c0,0.3,0.2,0.5,0.5,0.5S46.5,52.3,46.5,52z"></path></svg>