<?xml version="1.0" encoding="UTF-8" standalone="no"?>
<svg
   
   xmlns="http://www.w3.org/2000/svg"
   viewBox="0 0 3066 3498"
   version="1.1"
   id="svg8077">
  <path
     id="path12559"
     d="m 2238.6441,3496.9253 0,-15.8966 35.75,-0.4741 c 37.3488,-0.4953 47.1303,-1.392 63.1934,-5.7932 36.2264,-9.9257 55.2451,-41.4189 62.0572,-102.7609 2.3773,-21.4074 2.9737,-59.9382 2.9862,-192.9167 l 0.013,-140.2382 -155.1537,-236.7618 c -172.2415,-262.8375 -169.8044,-259.1469 -188.6991,-285.7618 -7.4187,-10.45 -19.5403,-27.55 -26.9368,-38 -18.3845,-25.9741 -21.8066,-30.0015 -34.585,-40.7024 -15.1568,-12.6925 -24.0597,-18.3753 -45.1254,-28.8037 -26.3259,-13.0324 -48.9893,-19.9677 -65.381,-20.0076 -10.7537,-0.026 -10.119,1.0153 -10.119,-16.6029 l 0,-15.3834 247,0 247,0 0,15.3427 0,15.3427 -20.25,0.6198 c -11.1375,0.3409 -24.3,1.3272 -29.25,2.1918 -39.9464,6.977 -64.5238,21.2896 -76.4631,44.5282 -7.8453,15.2698 -8.3976,35.0214 -1.5093,53.9748 4.7445,13.0548 18.309,38.1594 37.8224,70 12.5279,20.4423 249.0957,386.9813 249.7677,386.9911 0.4893,0.01 130.4733,-202.7883 217.9212,-339.9911 32.0106,-50.2234 47.5817,-80.9558 56.3521,-111.2207 4.3096,-14.8714 4.8372,-21.8809 2.5059,-33.2929 -3.252,-15.9188 -9.2102,-30.6917 -15.8467,-39.2907 -2.7228,-3.528 -12.9116,-12.1158 -19.6325,-16.5476 -13.8796,-9.1523 -42.9307,-16.5799 -65.0427,-16.6298 -4.4688,-0.01 -9.5313,-0.2995 -11.25,-0.6433 l -3.125,-0.625 0,-15.375 0,-15.375 201.5,0 201.5,0 0,15.5 0,15.5 -10.75,0.034 c -38.2668,0.1198 -64.199,8.5329 -98.75,32.0369 -41.8743,28.4857 -80.2214,71.1898 -124.755,138.9294 -6.3277,9.625 -75.2523,117.964 -153.1657,240.7534 l -141.6607,223.2534 0.3718,168.7466 c 0.3963,179.8086 0.2968,175.9311 5.246,204.4567 3.4022,19.6085 12.6886,42.4493 22.2062,54.6181 6.262,8.0062 15.5064,15.2742 25.5846,20.1147 15.7823,7.5803 27.2828,9.1125 74.6728,9.9485 l 34.5,0.6086 0.2754,15.75 0.2754,15.75 -245.5254,0 -245.5254,0 0,-15.8967 z m -1588.99999,-1158.042 0,-15.9388 4.75,-0.6653 c 2.6125,-0.366 10.0637,-1.7658 16.5583,-3.1106 56.5576,-11.7118 88.6358,-34.0747 114.5351,-79.8466 5.3548,-9.4635 19.1491,-39.2755 42.1067,-91 7.5675,-17.05 104.8017,-243.5241 216.07599,-503.2758 l 202.3168,-472.2757 14.5786,0.2757 14.5785,0.2758 202.1258,483 c 111.1692,265.65 206.3262,492.8782 211.4601,504.9516 35.5483,83.599 66.2087,125.5449 106.677,145.9425 7.5884,3.8248 21.1601,8.1661 33.0999,10.5878 11.2348,2.2788 34.4574,4.9902 42.8872,5.0074 l 5.25,0.011 0,16 0,16 -228.5254,0 -228.5254,0 0.2754,-15.7401 0.2754,-15.74 16.5,-1.2517 c 29.4523,-2.2341 50.2206,-6.7738 66,-14.4265 11.4246,-5.5407 23.9134,-17.8266 29.3524,-28.8754 4.8868,-9.927 7.0036,-20.2517 6.1439,-29.9663 -2.132,-24.0896 -13.3358,-62.5764 -31.5481,-108.3729 -4.4023,-11.0699 -22.5041,-54.3271 -40.2262,-96.1271 l -32.222,-76 -223.9512,0 -223.95119,0 -37.3175,86 c -47.0485,108.4257 -48.0306,110.7899 -56.287,135.5 -12.0504,36.065 -15.3689,58.169 -11.5572,76.9808 2.2235,10.9732 4.4862,15.1464 12.626,23.2873 5.6243,5.6249 8.6819,7.68 18.1027,12.1673 23.2391,11.0693 43.7619,15.9386 81.0854,19.2386 l 19.74999,1.7462 0,15.7899 0,15.7899 -181.49999,0 -181.5,0 0,-15.9387 z m 759.99999,-434.5086 c 0,-0.3616 -186.0851,-444.1666 -193.2347,-460.8564 -1.1318,-2.6421 -2.4003,-4.4421 -2.8189,-4 -0.8271,0.8734 -198.9143,460.6821 -199.7005,463.5537 -0.4552,1.6624 9.439,1.75 197.6375,1.75 108.9641,0 198.1166,-0.2013 198.1166,-0.4473 z M 29.644114,1155.322 l 0,-15.5 18.75,-0.026 c 46.1023,-0.064 70.187496,-3.9329 91.749996,-14.7377 10.8734,-5.4486 18.2928,-10.8452 27.1364,-19.7382 14.3923,-14.4728 19.7497,-29.9715 25.0661,-72.5153 1.5504,-12.407 1.7137,-47.07164 2.0465,-434.48267 0.366,-426.02392 0.2214,-446.99802 -3.2283,-468.00002 -4.2289,-25.747 -13.9422,-44.053398 -29.5207,-55.637498 -15.3923,-11.4456 -47.8818,-23.4856 -72.322396,-26.8013 -4.3023,-0.5837 -19.4898,-1.0613 -33.75,-1.0613 l -25.9276,0 0,-16 0,-16 245.999996,0 246,0 0,16 0,16 -25.1217,0 c -27.8737,0 -39.1183,1.1747 -57.3783,5.9941 -26.6202,7.0258 -41.5913,14.9457 -54.806,28.9931 -12.5461,13.3366 -18.7527,28.266398 -22.1646,53.316298 -3.703,27.1878 -3.8141,33.4188 -4.2304,237.152 l -0.4106,200.95548 2.2944,-1.95548 c 1.2619,-1.07551 11.2995,-10.28292 22.3058,-20.46089 11.0062,-10.17798 25.1864,-23.227 31.5114,-28.99783 6.325,-5.77083 16.9194,-15.66839 23.5431,-21.99459 6.6238,-6.32619 18.9988,-17.79485 27.5,-25.48591 101.5638,-91.88445 223.218,-208.71818 262.9841,-252.56333 32.0221,-35.30683 55.7507,-67.09575 65.9224,-88.31525 14.9076,-31.0995 14.2037,-50.779298 -2.4025,-67.163898 -14.8754,-14.677 -32.3812,-19.4207 -71.7971,-19.4555 l -20.75,-0.018 0,-16 0,-16 212.5,0 212.49999,0 0,15.8299 0,15.8298 -13.75,1.2101 c -42.5931,3.7485 -67.4313,10.0712 -95.4497,24.2973 -46.76929,23.7467 -105.26959,70.561798 -168.30029,134.683108 -50.9152,51.7961 -123.1562,124.04974 -229,229.03995 l -95,94.23387 84.5615,84.18799 c 230.4507,229.43284 373.2837,370.87213 390.4443,386.63467 26.81669,24.6319 45.28959,40.2754 65.49419,55.4629 37.03,27.835 65.8539,45.1158 98.6003,59.114 31.0544,13.275 65.4475,21.1897 101.2032,23.2895 l 11.6965,0.6869 0.2754,15.75 0.2754,15.75 -274.5255,0 -274.52529,0 0,-15.375 0,-15.375 3.125,-0.625 c 1.7187,-0.3437 6.1062,-0.6263 9.75,-0.6278 25.696,-0.011 49.9267,-7.7355 61.5232,-19.613 14.7626,-15.1204 20.3274,-30.8028 17.7013,-49.8842 -2.2312,-16.2117 -10.6193,-28.3787 -42.2887,-61.3406 -11.721,-12.19926 -98.9358,-98.95493 -193.8108,-192.79036 -94.875,-93.83543 -184.108,-182.14318 -198.2955,-196.23944 l -25.7955,-25.62957 0.3809,218.5 c 0.3795,217.62547 0.3897,218.56117 2.5452,233.78817 4.3727,30.8882 9.2871,45.0909 19.062,55.0883 10.2006,10.4328 35.506,24.7298 55.1029,31.1321 16.612,5.4271 29.3115,7.0661 59.75,7.7115 l 27.25,0.5778 0,15.351 0,15.3511 -246,0 -245.999996,0 0,-15.5 z"
     style="fill:#000000" />
</svg>
